<svg version="1.0" xmlns="http://www.w3.org/2000/svg"
 width="216.000000px" height="216.000000px" viewBox="0 0 216.000000 216.000000"
 preserveAspectRatio="xMidYMid meet">

<g transform="translate(0.000000,216.000000) scale(0.100000,-0.100000)"
fill="#000000" stroke="none">
<path d="M1450 1789 c-693 -217 -992 -309 -1009 -309 -13 0 -15 11 -13 62 2
35 9 69 15 76 8 11 6 11 -16 1 -23 -11 -26 -18 -31 -88 -4 -42 -9 -96 -11
-121 -3 -25 -1 -40 3 -33 5 9 18 9 51 0 38 -10 44 -10 56 6 10 14 14 15 18 5
3 -7 6 -3 6 9 1 19 13 26 84 48 92 28 107 30 107 15 0 -5 4 -10 9 -10 5 0 8 7
7 17 -1 11 12 20 44 28 25 7 219 63 432 124 214 62 392 109 398 106 6 -3 14 4
19 17 6 13 10 18 10 12 1 -12 315 75 319 89 7 20 -22 87 -37 86 -9 0 -216 -63
-461 -140z"/>
<path d="M375 1795 c-35 -16 -28 -19 10 -5 24 9 33 5 86 -37 33 -25 61 -44 64
-42 5 5 -97 87 -117 94 -7 2 -26 -2 -43 -10z"/>
<path d="M310 1770 c-8 -5 -10 -10 -5 -10 6 0 17 5 25 10 8 5 11 10 5 10 -5 0
-17 -5 -25 -10z"/>
<path d="M1585 1700 c4 -6 11 -8 16 -5 14 9 11 15 -7 15 -8 0 -12 -5 -9 -10z"/>
<path d="M1570 1670 c0 -5 5 -10 11 -10 5 0 7 5 4 10 -3 6 -8 10 -11 10 -2 0
-4 -4 -4 -10z"/>
<path d="M1565 1640 c-3 -5 -1 -10 4 -10 6 0 11 5 11 10 0 6 -2 10 -4 10 -3 0
-8 -4 -11 -10z"/>
<path d="M330 1562 c0 -12 -14 -34 -30 -49 -26 -23 -28 -28 -15 -36 41 -22 95
58 61 91 -15 15 -16 15 -16 -6z"/>
<path d="M724 1415 c8 -8 18 -15 22 -15 3 0 1 7 -6 15 -7 8 -17 15 -22 15 -5
0 -3 -7 6 -15z"/>
<path d="M165 1390 l-50 -17 47 -24 c26 -12 50 -20 53 -17 4 3 5 21 3 40 l-3
35 -50 -17z"/>
<path d="M1176 1337 c-15 -11 -19 -29 -20 -98 l-1 -85 -26 4 c-59 9 -63 -60
-5 -92 38 -20 46 -43 46 -140 0 -71 14 -129 36 -146 38 -32 84 39 84 130 l0
32 34 -30 c19 -17 43 -33 54 -36 23 -8 31 -64 32 -226 0 -142 6 -169 38 -177
56 -14 68 20 73 208 2 91 5 106 19 102 23 -6 53 31 46 55 -4 11 -22 32 -41 47
l-35 26 0 139 c0 130 -1 141 -22 160 -27 25 -39 25 -66 0 -26 -25 -36 -71 -30
-154 l4 -64 -58 39 -58 40 0 107 c0 85 -4 113 -17 132 -29 43 -54 51 -87 27z"/>
<path d="M969 1045 c-35 -30 -61 -44 -72 -41 -20 5 -77 -12 -78 -22 0 -4 -2
-21 -3 -39 -2 -18 -18 -50 -36 -73 -34 -43 -34 -68 0 -77 18 -5 20 -14 20 -73
0 -48 -4 -71 -15 -80 -8 -7 -15 -19 -15 -27 0 -7 7 -16 15 -19 11 -5 15 -22
15 -69 0 -65 6 -75 50 -75 28 0 41 32 47 115 6 73 6 73 52 108 103 79 131 126
86 143 -19 8 -75 -18 -100 -46 -29 -32 -35 -24 -35 44 l0 63 53 49 c29 27 70
62 91 77 29 23 36 35 34 55 -5 46 -46 41 -109 -13z"/>
<path d="M313 550 c0 -25 2 -35 4 -22 2 12 2 32 0 45 -2 12 -4 2 -4 -23z"/>
<path d="M452 518 c-1 -14 -11 -65 -22 -112 -17 -71 -19 -98 -12 -158 5 -40 8
-113 6 -163 -1 -50 6 11 17 135 10 124 17 248 16 275 -2 28 -4 38 -5 23z"/>
<path d="M295 380 c-4 -62 -5 -114 -2 -116 3 -3 8 45 12 106 4 61 5 113 2 116
-2 3 -8 -45 -12 -106z"/>
<path d="M1943 445 c0 -22 2 -30 4 -17 2 12 2 30 0 40 -3 9 -5 -1 -4 -23z"/>
<path d="M1858 343 c12 -2 32 -2 45 0 12 2 2 4 -23 4 -25 0 -35 -2 -22 -4z"/>
<path d="M1598 333 c12 -2 32 -2 45 0 12 2 2 4 -23 4 -25 0 -35 -2 -22 -4z"/>
<path d="M1718 333 c7 -3 16 -2 19 1 4 3 -2 6 -13 5 -11 0 -14 -3 -6 -6z"/>
<path d="M1453 323 c9 -2 25 -2 35 0 9 3 1 5 -18 5 -19 0 -27 -2 -17 -5z"/>
<path d="M1203 313 c9 -2 25 -2 35 0 9 3 1 5 -18 5 -19 0 -27 -2 -17 -5z"/>
<path d="M798 293 c6 -2 18 -2 25 0 6 3 1 5 -13 5 -14 0 -19 -2 -12 -5z"/>
<path d="M528 283 c7 -3 16 -2 19 1 4 3 -2 6 -13 5 -11 0 -14 -3 -6 -6z"/>
<path d="M283 210 c0 -25 2 -35 4 -22 2 12 2 32 0 45 -2 12 -4 2 -4 -23z"/>
</g>
</svg>
