<svg version="1.0" xmlns="http://www.w3.org/2000/svg"
 width="228.000000px" height="216.000000px" viewBox="0 0 228.000000 216.000000"
 preserveAspectRatio="xMidYMid meet">

<g transform="translate(0.000000,216.000000) scale(0.100000,-0.100000)"
fill="#000000" stroke="none">
<path d="M187 1954 c-10 -11 -9 -72 3 -79 5 -3 7 -19 4 -35 -4 -20 -1 -34 10
-45 9 -9 14 -21 11 -26 -4 -5 4 -10 17 -10 17 -1 18 -3 6 -6 -25 -6 -22 -24
12 -71 32 -45 61 -65 83 -57 7 3 20 -1 27 -10 17 -21 7 -30 -13 -11 -8 8 -17
12 -21 9 -3 -3 6 -17 20 -30 20 -18 29 -21 45 -13 11 6 17 15 14 21 -4 5 -2 9
4 9 13 0 31 -33 31 -58 0 -14 13 -24 43 -35 47 -18 147 -42 220 -52 40 -5 47
-9 42 -23 -4 -9 -12 -48 -18 -85 -18 -115 18 -252 87 -334 23 -27 31 -31 47
-23 17 9 19 7 19 -19 0 -29 29 -58 44 -44 3 3 6 1 6 -7 0 -10 3 -10 16 1 9 7
34 14 55 15 41 2 50 -13 30 -46 -31 -48 173 -64 280 -22 30 12 64 28 75 36 18
14 18 15 -6 25 -16 6 -19 10 -9 10 10 1 16 9 15 18 0 10 7 19 19 21 11 2 25
10 31 18 10 12 13 12 24 -1 12 -14 16 -13 37 7 16 15 20 24 12 29 -17 10 -2
42 17 35 22 -8 67 93 62 139 -2 18 0 31 5 28 5 -3 7 22 5 56 -1 34 -7 61 -13
61 -5 -1 -10 -10 -9 -20 0 -15 -3 -17 -12 -9 -15 12 -9 35 12 43 8 3 14 13 14
22 0 10 -3 14 -7 11 -5 -5 -33 36 -33 48 0 3 46 11 105 19 82 11 191 40 208
55 14 13 17 55 4 64 -8 5 -6 7 7 5 11 -2 20 -11 22 -21 1 -11 5 -21 7 -24 8
-7 47 16 47 27 0 6 6 10 14 10 23 0 106 98 133 157 16 34 29 85 32 124 8 86 0
117 -17 62 -20 -69 -87 -159 -151 -207 -75 -55 -158 -83 -283 -98 -82 -9 -95
-13 -91 -27 5 -11 -1 -9 -19 7 -27 25 -43 28 -54 10 -4 -6 -3 -8 4 -4 15 9 27
-13 14 -26 -8 -8 -8 -17 -1 -30 8 -15 7 -19 -3 -17 -17 3 -51 -11 -60 -25 -5
-7 -8 -6 -8 4 0 8 -12 28 -25 44 l-24 30 25 23 c19 17 21 23 9 23 -9 0 -33 11
-53 25 -83 57 -262 85 -327 51 -15 -8 -33 -12 -40 -10 -7 3 -16 1 -20 -5 -3
-6 1 -11 9 -11 9 0 16 -1 16 -2 12 -74 11 -82 -4 -90 -9 -5 -16 -15 -16 -23 0
-11 5 -11 30 1 16 9 32 19 34 23 5 8 35 7 144 -4 41 -4 68 -3 77 5 9 7 15 8
20 0 3 -5 -1 -10 -9 -10 -24 0 -19 -17 7 -26 15 -5 -1 -9 -55 -11 l-78 -4 0
-44 c0 -38 3 -45 20 -45 26 0 25 -4 -7 -51 -26 -36 -43 -49 -43 -31 0 4 -11
19 -25 34 -19 21 -24 34 -19 54 6 23 4 25 -15 19 -11 -3 -21 -3 -21 0 0 13 29
35 46 35 13 0 14 -3 4 -15 -8 -10 -9 -15 -2 -15 6 0 9 -7 6 -15 -4 -8 -1 -15
5 -15 6 0 11 18 11 44 l0 43 -75 0 c-57 -1 -74 -4 -71 -14 3 -7 -1 -13 -10
-13 -22 0 -30 31 -11 45 26 19 20 27 -14 20 -30 -7 -31 -6 -27 19 6 30 -8 35
-17 6 -3 -11 -9 -19 -13 -18 -4 1 -17 -1 -28 -5 -27 -9 -22 -43 7 -52 23 -8
27 -65 4 -65 -8 0 -23 -9 -33 -21 -18 -19 -20 -19 -27 -2 -16 36 -13 45 22 59
34 15 35 16 16 29 -20 14 -40 61 -22 49 5 -3 9 1 9 9 0 10 7 13 20 10 16 -4
20 0 20 17 0 21 -3 22 -37 16 -21 -3 -53 -6 -70 -6 -26 0 -33 -4 -33 -20 0
-17 -7 -20 -40 -20 -22 0 -40 5 -40 11 0 5 -5 7 -11 3 -8 -5 -8 -9 1 -14 8 -5
5 -12 -11 -24 -31 -21 -57 -22 -39 -1 15 19 3 40 -15 25 -9 -7 -16 -6 -25 5
-7 8 -16 13 -20 10 -5 -3 -17 6 -27 19 -14 17 -24 22 -34 15 -21 -13 -28 -11
-23 9 3 12 -11 24 -54 45 -31 15 -62 27 -68 27 -7 0 -14 10 -17 21 -4 15 -11
20 -22 15 -9 -3 -13 -2 -10 4 4 6 -5 24 -19 41 -14 17 -26 34 -26 39 0 4 -9 6
-20 3 -11 -3 -20 -1 -20 5 0 6 8 13 18 15 15 4 14 6 -4 12 -14 4 -20 13 -18
23 6 23 -10 75 -19 66z m933 -270 c0 -8 -4 -12 -10 -9 -5 3 -10 10 -10 16 0 5
5 9 10 9 6 0 10 -7 10 -16z m113 -39 c3 -18 -1 -26 -15 -31 -23 -7 -52 15 -30
23 20 7 3 23 -26 24 -23 1 -22 3 8 8 46 9 57 5 63 -24z m27 15 c0 -5 -2 -10
-4 -10 -3 0 -8 5 -11 10 -3 6 -1 10 4 10 6 0 11 -4 11 -10z m630 -56 c0 -2 -7
-4 -15 -4 -8 0 -15 4 -15 10 0 5 7 7 15 4 8 -4 15 -8 15 -10z m-1365 -24 c-6
-9 -9 -9 -16 1 -10 17 0 34 13 21 6 -6 7 -16 3 -22z m270 20 c3 -5 -1 -10 -10
-10 -9 0 -13 5 -10 10 3 6 8 10 10 10 2 0 7 -4 10 -10z m-217 -78 c15 -11 14
-11 -7 -2 -19 10 -25 9 -32 -1 -7 -11 -9 -10 -9 4 0 9 -4 17 -10 17 -18 0 -11
15 13 25 18 8 23 7 25 -10 2 -10 11 -25 20 -33z m137 18 c-5 -8 -10 -8 -21 1
-11 9 -14 8 -14 -7 0 -16 -2 -17 -10 -4 -5 8 -10 10 -10 4 0 -7 -7 -14 -15
-18 -12 -4 -13 -2 -3 13 13 22 59 41 72 30 4 -4 5 -12 1 -19z m220 20 c17 -6
14 -9 -18 -15 -40 -8 -53 -3 -42 14 7 13 31 13 60 1z m-156 -19 c-8 -3 -15
-13 -17 -21 -2 -8 -10 -18 -17 -23 -8 -4 -12 -15 -8 -25 8 -22 -1 -13 -16 15
-10 19 -9 22 5 16 11 -4 15 -2 12 7 -6 20 22 49 40 42 13 -5 13 -6 1 -11z m51
-10 c0 -3 -12 -7 -27 -8 -22 -1 -24 1 -10 9 10 5 14 14 10 21 -4 7 0 6 10 -2
9 -7 17 -16 17 -20z m230 -21 c0 -5 -5 -10 -11 -10 -5 0 -7 5 -4 10 3 6 8 10
11 10 2 0 4 -4 4 -10z m-37 -30 c-7 -27 -23 -36 -34 -19 -11 18 -11 32 0 25 5
-3 12 1 15 10 8 22 25 8 19 -16z m494 15 c0 -8 -4 -15 -9 -15 -10 0 -11 14 -1
23 9 10 10 9 10 -8z m-217 -10 c-1 -5 9 -13 22 -17 23 -6 23 -6 1 -7 -14 -1
-21 -6 -17 -14 3 -8 -2 -14 -12 -14 -9 0 -19 9 -22 19 -2 10 -9 18 -14 18 -6
0 -5 7 2 15 14 17 42 17 40 0z m97 -15 c-4 -15 0 -20 13 -20 22 0 31 -12 46
-60 7 -25 15 -34 27 -32 10 2 20 -4 24 -13 4 -13 8 -14 14 -4 4 8 6 -2 5 -23
-2 -29 1 -37 15 -41 11 -3 19 -11 19 -19 0 -11 -2 -10 -9 1 -7 11 -11 9 -20
-8 -6 -11 -15 -20 -19 -20 -19 3 -30 -2 -36 -16 -7 -20 11 -68 23 -60 6 3 14
-2 19 -12 8 -14 13 -15 24 -5 25 20 29 0 5 -20 -18 -16 -23 -17 -25 -5 -2 8
-13 18 -26 21 -12 3 -27 15 -32 27 -10 22 -11 21 -23 -9 -11 -26 -19 -32 -42
-32 -16 0 -29 -5 -29 -12 -1 -16 -55 44 -100 110 -29 43 -37 49 -53 40 -32
-17 -32 1 0 30 40 36 125 149 115 155 -4 2 -2 3 3 2 17 -4 50 11 51 24 2 18 4
21 10 21 4 0 4 -9 1 -20z m55 -2 c-7 -7 -12 -8 -12 -2 0 6 3 14 7 17 3 4 9 5
12 2 2 -3 -1 -11 -7 -17z m-417 -102 c30 -40 55 -77 55 -83 0 -5 -16 -31 -36
-57 -32 -42 -35 -51 -29 -86 8 -46 -1 -53 -16 -12 -9 24 -12 25 -20 10 -7 -13
-22 -18 -53 -18 -42 0 -45 2 -62 43 -12 28 -18 69 -19 122 0 44 -5 86 -9 94
-7 11 -5 13 6 9 10 -4 20 4 31 27 12 24 24 35 44 37 36 5 42 0 108 -86z m505
73 c0 -6 -4 -7 -10 -4 -5 3 -10 11 -10 16 0 6 5 7 10 4 6 -3 10 -11 10 -16z
m-280 1 c0 -5 -2 -10 -4 -10 -3 0 -8 5 -11 10 -3 6 -1 10 4 10 6 0 11 -4 11
-10z m215 0 c3 -5 2 -10 -4 -10 -5 0 -13 5 -16 10 -3 6 -2 10 4 10 5 0 13 -4
16 -10z m-229 -267 c3 -24 0 -33 -11 -33 -19 0 -37 34 -29 55 11 27 36 13 40
-22z m284 33 c0 -3 -4 -8 -10 -11 -5 -3 -10 -1 -10 4 0 6 5 11 10 11 6 0 10
-2 10 -4z m-336 -40 c31 -42 31 -42 5 -49 -17 -5 -20 -12 -17 -49 l3 -43 70
-1 c42 -1 73 2 77 9 13 21 19 0 8 -28 -8 -21 -13 -25 -24 -16 -10 8 -31 7 -80
-6 -54 -13 -78 -14 -124 -6 -33 6 -61 7 -66 2 -6 -5 -14 1 -21 14 -10 21 -9
22 50 27 l60 5 3 43 c3 35 0 43 -17 50 -21 7 -20 8 6 45 14 20 29 37 33 37 4
0 19 -15 34 -34z m83 8 c-3 -3 -12 -4 -19 -1 -8 3 -5 6 6 6 11 1 17 -2 13 -5z
m123 -155 c0 -5 -4 -9 -9 -9 -5 0 -18 -3 -28 -6 -17 -5 -17 -5 -1 9 10 8 15
17 11 21 -4 4 0 4 10 0 9 -3 17 -10 17 -15z"/>
<path d="M1470 1322 c0 -5 7 -16 16 -23 14 -12 16 -11 13 5 -4 20 -29 35 -29
18z"/>
<path d="M561 1609 c17 -17 23 -19 30 -8 5 9 3 16 -9 21 -33 13 -42 8 -21 -13z"/>
<path d="M626 1601 c-4 -7 -5 -15 -2 -18 9 -9 19 4 14 18 -4 11 -6 11 -12 0z"/>
<path d="M850 1475 c-11 -13 -10 -14 4 -9 9 3 16 10 16 15 0 13 -6 11 -20 -6z"/>
<path d="M1420 959 c0 -5 5 -7 10 -4 6 3 10 8 10 11 0 2 -4 4 -10 4 -5 0 -10
-5 -10 -11z"/>
<path d="M988 903 c6 -2 18 -2 25 0 6 3 1 5 -13 5 -14 0 -19 -2 -12 -5z"/>
<path d="M2025 850 c-3 -5 -14 -10 -24 -10 -25 0 -49 -29 -32 -39 8 -5 11 -37
9 -107 l-3 -99 -38 -3 -38 -3 2 96 c1 70 5 98 15 102 7 2 10 11 7 19 -6 16
-39 19 -48 4 -4 -6 -11 -8 -16 -4 -5 3 -22 -2 -36 -11 -23 -15 -24 -19 -10
-27 14 -7 17 -25 17 -94 0 -47 -5 -95 -11 -106 -8 -14 -8 -23 0 -31 7 -7 11
-54 11 -119 0 -95 -2 -108 -17 -108 -16 0 -16 -1 -1 -17 9 -9 25 -17 35 -18
10 -1 26 -6 36 -10 9 -4 25 -4 34 -1 15 6 15 8 3 16 -12 7 -16 37 -18 125 l-4
115 41 0 41 0 0 -118 c0 -73 -4 -122 -11 -129 -15 -15 -3 -33 22 -33 10 0 28
-5 38 -12 10 -6 27 -8 37 -4 18 7 18 8 1 21 -16 12 -18 26 -13 152 6 169 6
151 0 306 -4 109 -3 128 10 133 9 3 13 10 10 15 -7 12 -41 11 -49 -1z"/>
<path d="M301 809 c-14 -19 -29 -62 -38 -112 -8 -45 -19 -97 -25 -115 -7 -24
-7 -37 1 -45 6 -6 11 -33 11 -60 0 -68 28 -181 51 -212 29 -36 62 -32 98 13
36 42 48 80 57 172 4 36 12 74 19 85 10 17 10 24 -1 40 -8 10 -14 32 -14 49 0
52 -31 143 -62 180 -37 45 -66 47 -97 5z m80 -66 c6 -16 8 -59 5 -98 -3 -38
-5 -81 -5 -95 6 -222 2 -251 -35 -237 -13 5 -16 26 -16 116 0 63 4 112 10 116
7 4 7 12 0 25 -11 21 -14 183 -3 193 14 15 34 6 44 -20z"/>
<path d="M482 778 c-14 -14 -16 -32 -3 -23 13 8 18 -2 44 -92 12 -43 22 -100
21 -128 -1 -61 -50 -225 -67 -225 -7 0 -4 -7 6 -14 31 -24 92 2 82 34 -7 22
15 114 25 103 3 -4 12 -28 19 -52 9 -32 10 -46 1 -51 -22 -13 15 -30 53 -23
46 7 67 28 44 46 -21 16 -70 168 -57 181 5 5 6 16 0 26 -7 12 -3 38 12 81 24
73 36 92 52 82 6 -4 4 4 -5 17 -19 28 -84 36 -85 10 -1 -33 -15 -90 -23 -90
-13 0 -31 73 -21 85 16 19 -7 39 -48 42 -21 1 -44 -3 -50 -9z"/>
<path d="M1695 782 c-48 -10 -78 -58 -95 -152 -6 -36 -15 -74 -20 -85 -5 -14
-3 -28 6 -40 8 -10 14 -33 14 -49 0 -41 43 -132 69 -145 60 -33 111 9 111 90
0 45 -2 49 -24 49 -20 0 -24 -4 -22 -29 1 -16 -1 -39 -6 -50 -8 -22 -42 -29
-53 -11 -12 19 -12 121 0 144 9 17 10 27 2 35 -12 12 -15 146 -4 174 9 25 46
21 56 -5 4 -13 6 -40 3 -60 -4 -35 -2 -38 22 -38 26 0 26 0 26 86 0 49 -4 83
-9 80 -5 -4 -20 -2 -33 2 -12 5 -32 6 -43 4z"/>
<path d="M754 739 c-2 -4 3 -9 11 -13 18 -7 21 -136 4 -153 -8 -8 -9 -21 -2
-40 13 -42 8 -174 -7 -183 -9 -6 -7 -11 8 -19 13 -7 23 -7 27 -1 3 5 18 7 34
4 30 -6 52 20 25 30 -10 4 -14 25 -14 86 0 77 1 80 23 80 38 0 47 -19 47 -95
0 -92 24 -118 75 -79 19 14 19 16 3 25 -14 8 -18 24 -18 78 0 55 -4 71 -20 86
-19 17 -19 18 0 43 31 38 27 97 -9 132 -27 28 -33 29 -105 28 -43 -1 -79 -5
-82 -9z m146 -54 c20 -52 -9 -125 -44 -112 -12 5 -16 21 -16 72 0 63 1 65 25
65 18 0 28 -7 35 -25z"/>
<path d="M1455 738 c-15 -9 -15 -11 0 -22 13 -9 15 -28 13 -101 l-3 -90 -28
86 c-28 89 -58 129 -94 129 -11 0 -26 -7 -33 -15 -8 -9 -8 -15 -2 -15 7 0 11
-56 11 -165 0 -147 -2 -165 -16 -165 -28 0 -1 -17 37 -24 44 -7 68 5 45 24
-11 9 -15 32 -15 91 0 43 4 80 8 83 5 3 23 -42 41 -99 36 -120 60 -148 109
-126 24 11 25 14 9 22 -14 8 -17 25 -17 92 0 51 5 88 12 95 9 9 9 15 0 24 -19
19 -16 157 3 164 8 4 12 10 10 15 -7 11 -68 9 -90 -3z"/>
<path d="M1181 731 c-8 -5 -29 -7 -46 -4 -19 3 -35 0 -39 -6 -4 -6 -2 -11 5
-11 18 0 3 -99 -20 -131 -12 -16 -18 -35 -14 -48 9 -36 -17 -150 -39 -165 -25
-18 -13 -24 37 -21 52 4 52 4 37 14 -10 6 -12 19 -5 52 8 41 11 44 44 47 35 3
37 2 47 -40 10 -36 9 -45 -4 -55 -20 -15 -7 -22 36 -18 19 2 38 4 42 4 3 1 0
14 -8 31 -9 17 -16 62 -17 104 l-2 73 -23 -15 c-18 -12 -22 -21 -17 -43 7 -31
-5 -38 -25 -14 -11 13 -15 13 -33 0 -30 -21 -35 -19 -29 10 3 16 -2 33 -13 45
-18 19 -17 20 8 20 20 0 28 6 33 25 3 14 10 25 15 25 5 0 11 -11 15 -25 4 -18
13 -25 31 -25 20 0 24 4 18 17 -14 37 -18 143 -6 143 7 0 9 5 6 10 -8 12 -16
12 -34 1z"/>
</g>
</svg>
