<svg version="1.0" xmlns="http://www.w3.org/2000/svg"
 width="464.000000px" height="588.000000px" viewBox="0 0 464.000000 588.000000"
 preserveAspectRatio="xMidYMid meet">

<g transform="translate(0.000000,588.000000) scale(0.100000,-0.100000)"
fill="#000000" stroke="none">
<path d="M2185 5783 c-11 -2 -30 -6 -42 -9 -31 -6 -29 -24 1 -24 22 0 25 -5
31 -57 8 -71 12 -83 25 -83 6 0 10 29 10 71 0 62 2 71 20 76 11 3 20 12 20 19
0 14 -23 16 -65 7z"/>
<path d="M2297 5783 c-4 -3 -7 -42 -7 -85 0 -70 2 -79 17 -76 11 2 20 15 23
33 3 17 11 30 18 29 6 -1 18 -2 26 -2 9 -1 16 -15 18 -34 2 -17 9 -33 15 -36
19 -6 28 27 16 59 -7 17 -7 31 -2 35 15 9 10 56 -8 70 -19 14 -105 19 -116 7z
m98 -48 c0 -15 -8 -21 -32 -23 -30 -3 -33 -1 -33 23 0 24 3 26 33 23 24 -2 32
-8 32 -23z"/>
<path d="M2476 5764 c-3 -9 -6 -47 -6 -86 0 -51 3 -69 12 -66 26 9 39 168 14
168 -8 0 -17 -7 -20 -16z"/>
<path d="M2555 5758 c-2 -7 -5 -43 -8 -80 l-5 -67 31 -10 c47 -17 72 -13 97
14 21 23 23 29 11 47 -9 14 -10 23 -2 31 18 18 13 45 -11 61 -27 19 -107 21
-113 4z m105 -38 c0 -4 -6 -13 -14 -19 -26 -22 -73 18 -50 42 7 7 64 -13 64
-23z m-13 -66 c9 -24 -11 -37 -46 -29 -22 5 -31 12 -31 26 0 15 7 19 35 19 23
0 38 -6 42 -16z"/>
<path d="M1910 5713 c1 -59 26 -139 41 -134 8 2 33 6 57 9 56 6 49 27 -9 27
-42 0 -44 2 -47 30 -4 47 -22 105 -32 105 -6 0 -10 -17 -10 -37z"/>
<path d="M2754 5738 c-9 -14 -35 -114 -37 -143 -2 -16 5 -21 33 -23 19 -2 39
-8 45 -13 12 -11 45 -12 45 0 0 15 -24 29 -55 33 -22 2 -31 9 -33 26 -3 22 -2
23 49 16 41 -6 51 -4 47 7 -2 7 -21 18 -41 22 -28 7 -37 14 -37 29 0 17 5 19
28 15 60 -12 67 -12 67 3 0 9 -15 17 -43 22 -23 4 -46 10 -51 13 -5 3 -13 0
-17 -7z"/>
<path d="M1770 5699 c-6 -11 -14 -51 -17 -88 -6 -78 7 -99 32 -51 12 23 22 30
45 30 16 0 32 -4 35 -10 8 -12 35 -13 35 -2 0 5 -9 19 -20 32 -11 13 -33 43
-48 67 -30 48 -46 53 -62 22z m46 -46 c19 -26 17 -43 -6 -43 -16 0 -20 7 -20
30 0 34 7 38 26 13z"/>
<path d="M1650 5651 c0 -17 5 -33 10 -36 10 -6 14 -45 5 -45 -3 0 -17 11 -31
25 -74 74 -109 68 -79 -12 29 -80 40 -103 47 -103 12 0 10 58 -2 65 -13 8 -13
45 -1 45 5 0 11 -3 13 -7 8 -18 89 -73 99 -68 10 7 4 55 -12 85 -4 8 -14 30
-21 48 -16 40 -28 41 -28 3z"/>
<path d="M2979 5639 c-57 -62 -25 -149 54 -149 49 0 82 39 82 96 0 36 -5 49
-25 64 -38 29 -77 25 -111 -11z m92 -9 c26 -15 24 -58 -5 -95 -22 -28 -25 -29
-50 -16 -35 19 -37 82 -4 105 26 19 33 19 59 6z"/>
<path d="M3183 5598 c-19 -24 -70 -137 -65 -143 10 -10 32 -5 32 8 0 6 7 20
14 30 13 17 16 17 45 3 36 -19 41 -20 41 -3 0 6 -13 18 -30 25 -18 8 -30 21
-30 33 0 23 21 24 59 4 27 -13 41 -11 41 6 0 4 -19 15 -42 25 -24 10 -46 20
-49 21 -3 2 -11 -2 -16 -9z"/>
<path d="M1415 5590 c-34 -13 -46 -36 -43 -81 2 -35 9 -47 40 -72 36 -29 40
-30 65 -16 60 31 74 68 47 124 -22 48 -62 65 -109 45z m74 -46 c39 -49 20 -99
-35 -92 -19 2 -33 13 -46 37 -17 30 -18 35 -3 57 21 32 58 31 84 -2z"/>
<path d="M1290 5510 c0 -11 11 -39 25 -62 14 -24 28 -51 32 -60 6 -19 33 -25
33 -8 0 15 -74 150 -82 150 -5 0 -8 -9 -8 -20z"/>
<path d="M2095 5499 c-128 -21 -179 -32 -280 -60 -193 -54 -407 -160 -571
-282 -82 -62 -275 -249 -324 -315 -19 -26 -37 -49 -40 -52 -17 -17 -150 -225
-150 -235 0 -2 -18 -42 -40 -89 -22 -47 -40 -92 -40 -99 0 -7 -4 -17 -8 -22
-5 -6 -14 -30 -21 -55 -7 -25 -17 -54 -21 -65 -11 -29 -28 -95 -35 -135 -3
-19 -11 -66 -18 -105 -15 -92 -15 -440 0 -530 20 -114 31 -168 41 -205 16 -58
42 -134 52 -152 6 -10 10 -24 10 -32 0 -8 9 -31 19 -53 10 -21 35 -71 55 -110
l36 -73 -22 -20 c-30 -28 -41 -25 -57 13 -15 34 -88 189 -151 322 -21 44 -41
90 -45 103 -7 26 -21 27 -61 8 -16 -8 -50 -23 -75 -35 -25 -11 -52 -27 -59
-36 -7 -8 -17 -15 -22 -15 -13 0 -38 -26 -38 -40 0 -6 23 -59 51 -118 29 -59
57 -118 63 -132 6 -14 14 -27 17 -30 6 -5 54 -107 78 -163 14 -35 14 -57 1
-57 -6 0 -29 -12 -53 -27 -54 -35 -94 -58 -133 -78 -17 -9 -41 -25 -52 -35
-12 -11 -25 -20 -30 -20 -14 0 -79 -74 -93 -107 -8 -18 -18 -33 -22 -33 -5 0
-7 -12 -5 -27 2 -20 11 -29 33 -35 33 -10 126 -3 153 11 9 5 58 28 107 51 50
23 97 46 105 51 55 32 137 69 151 69 9 0 24 9 34 20 10 11 22 20 27 20 10 0
141 61 148 69 24 28 120 51 120 30 1 -16 223 -238 285 -285 40 -31 174 -120
210 -140 27 -15 30 -42 8 -67 -10 -12 -25 -35 -33 -52 -8 -16 -17 -32 -20 -35
-13 -13 -30 -52 -30 -69 0 -11 -5 -23 -10 -26 -5 -3 -10 -17 -10 -30 0 -26
-15 -41 -25 -25 -9 14 -21 6 -115 -80 l-82 -75 7 -45 c9 -59 5 -252 -5 -310
-5 -25 -17 -74 -27 -109 -14 -50 -15 -65 -5 -68 14 -5 17 -83 2 -83 -5 0 -10
-9 -10 -20 0 -11 5 -20 10 -20 6 0 10 6 10 14 0 13 74 96 85 96 7 0 -13 -40
-30 -60 -31 -36 -55 -94 -66 -156 l-12 -67 31 -26 c24 -20 29 -30 22 -42 -5
-9 -10 -81 -11 -160 -1 -134 1 -147 23 -185 66 -116 130 -174 176 -157 23 9
82 73 82 90 0 7 5 13 10 13 6 0 10 9 10 20 0 11 5 20 10 20 6 0 10 8 10 18 0
10 5 23 11 29 19 19 30 92 29 182 -1 59 2 86 11 92 11 6 9 17 -9 49 -22 42
-22 60 2 60 27 0 35 49 40 225 5 176 8 235 22 383 5 58 3 77 -10 97 -20 30
-22 55 -4 37 7 -7 18 -12 25 -12 20 0 15 27 -6 33 -19 5 -58 73 -48 84 7 6 37
-21 37 -34 0 -4 8 -17 16 -28 15 -19 15 -19 8 10 -4 17 -14 41 -23 55 -9 14
-23 37 -30 51 -8 17 -28 31 -52 39 -57 19 -65 32 -48 83 16 51 26 70 64 124
38 53 65 57 65 9 0 -19 -4 -38 -10 -41 -17 -10 -12 -115 5 -121 8 -4 15 -15
15 -25 0 -28 25 -23 38 6 19 41 14 117 -10 176 -12 30 -26 56 -30 57 -4 2 -8
8 -8 13 0 6 7 6 18 0 55 -29 136 -59 328 -121 17 -6 42 -10 57 -10 35 0 77
-20 77 -37 0 -8 -11 -49 -25 -90 -14 -42 -31 -98 -36 -125 -9 -39 -22 -60 -69
-108 -33 -33 -63 -60 -68 -60 -25 0 -42 -39 -41 -89 1 -28 -3 -57 -9 -63 -18
-18 -14 -30 8 -23 20 6 28 -9 11 -19 -16 -10 -35 -252 -20 -262 5 -3 9 13 9
35 0 23 5 41 10 41 6 0 10 -22 10 -49 0 -28 -4 -53 -10 -56 -5 -3 -10 0 -10 7
0 9 -3 9 -10 -2 -5 -8 -9 -81 -9 -163 -1 -143 0 -148 19 -142 18 6 30 -9 13
-17 -15 -6 -51 -86 -43 -95 5 -4 11 -62 14 -128 5 -129 12 -198 25 -230 23
-56 40 -82 84 -127 38 -39 54 -49 70 -44 12 3 27 6 32 6 16 0 59 42 72 70 6
14 17 43 24 65 7 22 17 44 21 50 4 5 8 21 8 36 0 15 5 31 10 34 6 3 10 19 10
35 0 16 4 31 8 34 5 3 7 27 6 53 -5 73 -5 72 7 173 6 52 13 241 15 419 5 318
5 324 27 342 18 14 20 20 10 30 -7 7 -13 22 -13 32 0 20 -130 157 -149 157
-14 0 -14 41 0 77 43 105 71 145 91 125 7 -7 7 -20 -1 -43 -17 -48 -14 -113 7
-139 21 -26 52 -18 52 14 0 23 22 92 33 102 14 14 6 34 -13 34 -12 0 -20 7
-20 18 -1 39 -28 56 -85 56 -56 -1 -70 11 -42 35 10 8 30 8 73 0 36 -7 130
-10 245 -7 l186 5 -8 -26 c-17 -54 -32 -141 -26 -147 4 -4 14 -1 22 6 14 12
16 10 13 -15 -2 -16 2 -30 10 -32 7 -3 12 4 12 16 0 11 4 22 9 25 9 6 21 67
23 118 1 32 18 28 41 -11 19 -32 23 -133 8 -174 -5 -13 -39 -60 -75 -103 -36
-43 -66 -86 -66 -96 0 -9 -4 -20 -10 -23 -11 -7 -14 -55 -3 -55 3 0 15 7 25
17 29 26 32 8 4 -33 -41 -60 -15 -66 39 -8 30 33 45 58 45 77 0 15 0 30 1 34
1 17 -18 11 -43 -12 -33 -30 -38 -31 -38 -5 0 11 5 20 10 20 6 0 10 6 10 13 0
8 23 38 50 67 28 29 50 58 50 63 0 14 41 47 51 41 5 -3 9 -16 9 -30 0 -17 -5
-24 -20 -24 -19 0 -19 -9 -23 -252 -3 -139 -9 -278 -15 -308 -6 -30 -14 -71
-17 -90 -6 -32 -13 -52 -37 -105 -11 -26 -77 -79 -86 -71 -3 4 0 17 8 29 7 12
23 40 34 62 12 22 24 42 27 45 13 11 30 52 25 58 -4 3 -22 -11 -41 -31 -19
-20 -39 -37 -45 -37 -12 0 -13 33 -1 45 23 25 35 335 14 342 -10 4 -13 -18
-13 -84 -1 -48 -5 -119 -10 -158 -20 -142 -23 -195 -12 -195 6 0 12 6 15 13 2
6 7 9 11 6 7 -7 -16 -59 -26 -59 -5 0 -8 -14 -8 -31 0 -30 2 -31 30 -25 36 7
37 -1 8 -51 -15 -27 -21 -52 -19 -85 3 -66 3 -96 2 -227 -1 -111 0 -115 32
-175 44 -80 77 -92 134 -50 47 35 93 80 93 90 0 4 12 28 27 53 57 95 77 197
49 251 -21 42 -20 50 3 50 19 0 20 2 43 150 14 86 22 570 9 570 -17 0 -20 -28
-15 -129 4 -71 2 -101 -5 -101 -6 0 -16 11 -22 24 -12 25 -55 54 -65 44 -3 -4
13 -25 35 -48 31 -32 41 -50 41 -76 0 -18 5 -36 10 -39 6 -3 10 -29 10 -57 0
-52 -19 -178 -26 -178 -3 0 -20 14 -38 30 -36 33 -67 90 -85 156 -12 46 -15
344 -3 344 8 0 32 -70 32 -94 0 -8 5 -18 11 -21 16 -11 4 76 -17 121 -15 31
-16 43 -6 80 17 64 16 77 -8 71 -18 -5 -20 0 -20 54 0 41 4 59 13 59 12 0 67
-71 67 -87 0 -5 16 -24 35 -43 19 -19 35 -39 35 -46 0 -21 -38 -23 -59 -3 -24
23 -31 24 -31 5 0 -33 84 -59 119 -37 12 8 12 13 -1 33 -11 16 -13 30 -7 39
12 19 11 66 -1 74 -5 3 -10 15 -10 25 0 11 -12 24 -30 32 -16 7 -30 16 -30 20
0 5 -5 8 -10 8 -6 0 -28 11 -50 25 l-40 25 0 83 c-1 45 -5 102 -11 127 -5 25
-11 51 -12 59 -2 17 30 35 93 51 95 26 155 48 261 99 36 17 71 31 77 31 15 0
17 -96 2 -105 -14 -9 -13 -58 2 -73 19 -19 28 -14 28 13 0 14 5 25 10 25 6 0
10 -4 10 -10 0 -5 9 -10 20 -10 22 0 31 16 51 93 8 26 17 47 21 47 4 0 8 11 8
25 0 36 28 32 44 -8 8 -17 19 -52 26 -77 6 -25 16 -60 22 -78 5 -19 8 -34 6
-36 -27 -17 -87 -66 -109 -88 -33 -35 -63 -94 -54 -108 8 -13 45 -13 45 0 0 6
7 10 15 10 19 0 20 0 -12 -67 -14 -32 -30 -67 -35 -79 -5 -11 -9 -52 -7 -90 1
-38 -2 -202 -6 -364 -5 -224 -4 -310 6 -355 7 -33 13 -118 13 -190 1 -144 9
-194 38 -242 23 -38 63 -44 100 -16 56 44 148 145 148 163 0 5 9 25 21 44 12
20 21 52 21 71 0 19 4 38 9 41 5 3 9 15 9 28 0 12 4 26 9 31 10 11 16 53 32
240 15 170 16 227 4 248 -13 23 -25 22 -25 -3 0 -30 -16 -24 -32 10 -7 16 -16
30 -20 30 -5 0 -8 5 -8 11 0 6 -9 24 -20 39 -11 16 -17 35 -14 44 4 9 0 24 -7
34 -36 45 -39 59 -28 142 6 45 8 95 4 113 -4 18 -11 84 -15 147 -11 140 -19
198 -31 206 -5 3 -9 25 -9 49 0 24 -5 47 -11 50 -5 4 -9 17 -7 28 3 26 -57
117 -77 117 -29 0 -14 18 58 71 78 58 228 203 293 284 100 124 229 343 273
465 7 19 17 44 22 55 32 77 76 263 96 405 11 83 8 355 -5 440 -21 138 -34 203
-52 260 -4 14 -14 45 -21 70 -7 25 -16 50 -20 55 -4 6 -10 24 -13 40 -6 27 -2
33 41 60 26 17 52 32 59 35 6 3 87 78 180 166 93 89 186 177 208 196 36 32 37
36 25 56 -14 23 -47 28 -77 13 -9 -5 -28 -13 -42 -18 -54 -22 -77 -31 -120
-51 -25 -11 -72 -30 -105 -43 -33 -12 -64 -26 -69 -31 -6 -4 -16 -8 -23 -8 -8
0 -33 -9 -55 -20 -23 -11 -46 -20 -51 -20 -4 0 -28 -13 -52 -30 -24 -16 -46
-30 -49 -30 -3 0 -29 35 -57 78 -29 42 -55 79 -58 82 -4 3 -26 30 -50 60 -64
79 -173 185 -266 258 -44 34 -85 67 -92 72 -7 6 -16 10 -21 10 -4 0 -17 8 -28
18 -36 32 -213 122 -339 172 -79 31 -236 71 -360 91 -86 14 -399 19 -470 8z
m474 -40 c136 -22 287 -66 421 -122 72 -30 98 -43 174 -86 18 -11 44 -25 57
-33 13 -7 26 -16 29 -19 3 -3 32 -24 65 -46 146 -99 324 -278 426 -430 53 -79
60 -102 29 -110 -11 -3 -20 -9 -20 -13 0 -4 -8 -10 -17 -14 -10 -3 -31 -14
-48 -23 -115 -69 -173 -103 -246 -145 -13 -7 -26 -15 -29 -18 -10 -10 -65 -41
-82 -47 -10 -3 -18 -9 -18 -14 0 -5 -4 -9 -10 -9 -9 0 -179 -98 -190 -110 -3
-3 -15 -11 -28 -18 -21 -12 -26 -10 -53 19 -16 17 -29 34 -29 38 0 3 -10 17
-22 31 -13 14 -35 41 -50 62 -15 20 -34 42 -41 50 -7 7 -24 29 -37 48 -13 19
-31 42 -40 50 -9 8 -27 31 -40 50 -13 19 -32 42 -42 51 -10 9 -18 20 -18 25 0
5 -12 23 -28 39 -15 17 -39 46 -54 67 -15 20 -34 42 -41 50 -7 7 -24 29 -37
48 -13 19 -31 42 -40 50 -9 8 -27 31 -40 50 -13 19 -31 42 -40 50 -9 8 -27 31
-40 50 -13 19 -27 37 -30 40 -3 3 -17 21 -30 40 -13 19 -39 51 -57 70 -28 30
-32 40 -27 68 10 54 -11 82 -61 82 -49 0 -65 -13 -65 -56 0 -55 8 -64 57 -64
47 0 52 -3 94 -60 15 -19 36 -46 48 -59 11 -13 21 -27 21 -30 0 -3 10 -17 23
-31 12 -14 34 -41 49 -62 15 -20 34 -42 41 -50 7 -7 24 -29 37 -48 13 -19 31
-42 40 -50 9 -8 27 -31 40 -50 13 -19 27 -37 30 -40 3 -3 17 -21 32 -42 15
-20 33 -42 40 -50 7 -7 25 -29 40 -50 15 -20 34 -42 41 -50 7 -7 24 -29 37
-48 13 -19 31 -42 40 -50 9 -8 27 -31 40 -50 13 -19 27 -37 30 -40 3 -3 17
-21 31 -40 15 -19 43 -53 62 -75 20 -22 37 -45 37 -51 0 -6 -12 -17 -27 -25
-16 -8 -30 -16 -33 -19 -6 -7 -65 -42 -171 -102 -13 -7 -26 -15 -29 -18 -3 -3
-26 -17 -52 -30 -27 -14 -48 -28 -48 -32 0 -5 -6 -8 -14 -8 -8 0 -17 15 -20
34 -8 39 -95 126 -127 126 -10 0 -19 4 -19 9 0 5 -8 11 -17 14 -37 12 -109 60
-148 98 -23 21 -48 39 -56 39 -8 0 -31 -16 -50 -36 -18 -19 -49 -45 -67 -56
l-34 -21 -26 27 c-22 21 -25 29 -15 44 8 14 7 38 -3 98 -19 110 -26 138 -64
227 -36 87 -44 97 -104 132 -43 25 -74 31 -153 27 -36 -2 -43 -5 -43 -22 0
-14 7 -20 23 -20 13 0 33 -9 45 -20 12 -11 25 -20 30 -20 4 0 20 -13 35 -28
28 -29 36 -72 15 -72 -7 0 -41 -27 -75 -60 -34 -33 -66 -60 -71 -60 -5 0 -17
-10 -28 -21 -26 -30 -117 -89 -195 -127 -54 -28 -75 -33 -120 -30 l-54 3 -3
44 c-2 25 1 54 7 65 5 12 12 35 16 51 14 68 17 81 23 95 3 8 7 29 8 45 2 35
24 87 59 134 31 43 35 101 6 101 -11 0 -23 -4 -26 -10 -3 -5 -13 -10 -21 -10
-13 0 -12 5 4 28 29 41 41 100 33 163 -1 9 -29 20 -76 30 -22 4 -60 12 -85 18
-40 9 -47 8 -62 -10 -9 -11 -23 -17 -32 -13 -11 4 -16 0 -16 -14 0 -11 8 -22
20 -25 38 -10 21 -33 -37 -52 -70 -22 -106 -43 -98 -55 4 -6 17 -10 31 -10 13
0 24 -4 24 -8 0 -14 -22 -31 -35 -26 -7 3 -30 -4 -51 -15 -21 -12 -44 -21 -51
-21 -7 0 -13 -7 -13 -15 0 -13 4 -14 21 -5 30 16 38 2 12 -20 -31 -25 -29 -30
11 -30 46 0 104 33 146 82 92 107 151 151 192 140 17 -4 19 -10 13 -40 -3 -19
-12 -44 -18 -56 -15 -26 -109 -125 -120 -126 -4 0 -20 -9 -36 -21 -15 -11 -57
-31 -92 -43 -49 -18 -65 -29 -67 -45 -5 -29 15 -51 44 -51 13 0 24 -4 24 -10
0 -5 15 -10 34 -10 19 0 37 -4 41 -9 5 -10 -3 -64 -24 -163 -6 -26 -19 -66
-31 -90 -11 -23 -20 -50 -20 -59 0 -10 -4 -21 -10 -24 -5 -3 -10 -19 -10 -35
0 -16 -4 -32 -10 -35 -13 -8 -13 -132 0 -140 5 -3 10 -24 10 -45 0 -21 5 -42
10 -45 6 -3 10 -17 10 -31 0 -13 3 -24 8 -24 4 -1 18 -9 30 -20 23 -19 23 -22
11 -72 -7 -29 -14 -71 -15 -93 -7 -75 -16 -125 -25 -131 -5 -3 -9 -36 -9 -75
0 -38 -4 -77 -10 -87 -5 -9 -16 -37 -24 -62 -8 -25 -26 -76 -41 -114 -14 -38
-25 -79 -25 -92 0 -43 -10 -54 -50 -54 -22 0 -42 5 -45 10 -3 6 -19 10 -35 10
-16 0 -32 4 -35 10 -3 6 -22 10 -41 10 -20 0 -43 4 -53 10 -33 17 -97 215
-130 396 -13 73 -15 498 -2 557 5 23 15 69 21 102 7 33 16 69 20 80 4 11 13
40 20 65 14 51 34 108 57 160 28 65 77 165 83 170 3 3 14 21 23 40 29 61 126
194 207 284 110 121 296 277 402 336 143 79 259 130 358 160 41 12 86 26 100
30 28 9 99 25 175 39 72 13 446 13 524 0z m-351 -169 c18 -29 -4 -62 -38 -58
-26 3 -38 33 -26 64 8 21 49 17 64 -6z m-860 -357 c-2 -14 -15 -19 -61 -21
-31 -2 -57 1 -57 5 0 14 43 30 83 32 32 1 38 -2 35 -16z m-168 -73 c0 -5 -3
-10 -8 -10 -4 0 -18 -18 -32 -40 -30 -49 -54 -62 -39 -22 17 45 79 102 79 72z
m161 -183 c-1 -12 -15 -9 -19 4 -3 6 1 10 8 8 6 -3 11 -8 11 -12z m2614 -7
c10 -11 23 -28 29 -38 6 -10 21 -34 33 -53 13 -19 23 -43 23 -53 0 -23 -47
-76 -67 -76 -7 0 -13 -4 -13 -10 0 -5 -6 -10 -14 -10 -16 0 -109 188 -102 207
3 7 11 13 18 13 7 0 24 9 38 20 31 24 33 24 55 0z m-2065 -50 c0 -5 -5 -10
-11 -10 -5 0 -7 5 -4 10 3 6 8 10 11 10 2 0 4 -4 4 -10z m1925 -20 c9 -15 -7
-31 -52 -55 -21 -11 -40 -22 -43 -25 -3 -3 -14 -10 -25 -16 -48 -26 -70 -39
-75 -44 -3 -3 -16 -11 -29 -18 -61 -35 -90 -51 -139 -81 -29 -17 -57 -31 -62
-31 -6 0 -10 -4 -10 -10 0 -5 -5 -10 -11 -10 -6 0 -23 -8 -37 -19 -40 -28
-115 -71 -134 -78 -10 -3 -18 -9 -18 -14 0 -5 -4 -9 -10 -9 -5 0 -55 -27 -110
-60 -55 -33 -105 -60 -110 -60 -6 0 -10 -4 -10 -9 0 -5 -8 -11 -17 -14 -18 -6
-73 -37 -83 -47 -3 -3 -16 -11 -29 -18 -63 -36 -90 -52 -141 -82 -51 -30 -78
-46 -141 -82 -13 -7 -26 -15 -29 -18 -3 -3 -15 -11 -27 -17 -13 -7 -33 -19
-45 -25 -13 -7 -25 -15 -28 -18 -3 -3 -16 -11 -29 -18 -63 -36 -90 -52 -141
-82 -51 -30 -78 -46 -141 -82 -13 -7 -26 -15 -29 -18 -3 -3 -14 -10 -25 -16
-48 -26 -70 -39 -75 -44 -3 -3 -14 -10 -25 -16 -48 -26 -70 -39 -75 -44 -3 -3
-18 -12 -35 -20 -16 -8 -41 -22 -55 -31 -14 -9 -41 -26 -61 -37 -76 -42 -84
-47 -89 -52 -3 -3 -16 -11 -29 -18 -13 -8 -38 -22 -56 -32 -18 -10 -63 -37
-100 -59 -37 -23 -69 -41 -72 -41 -3 0 -17 -8 -31 -19 -15 -10 -43 -28 -63
-39 -76 -42 -84 -47 -89 -52 -6 -6 -43 -27 -95 -54 -22 -12 -46 -26 -53 -33
-14 -14 -52 -27 -58 -20 -9 8 7 35 24 40 17 6 72 37 82 47 3 3 19 12 35 20 17
8 41 22 55 31 14 9 41 26 61 37 76 42 84 47 89 52 3 3 15 11 28 18 12 6 32 18
45 25 12 6 24 14 27 17 3 3 16 11 29 18 106 60 165 95 171 102 3 3 19 12 35
20 17 8 41 22 55 31 14 9 41 26 61 37 76 42 84 47 89 52 5 5 13 10 89 52 20
11 48 29 63 39 14 11 31 19 36 19 6 0 12 3 14 8 2 4 23 18 48 31 25 14 47 27
50 30 3 3 16 12 29 19 13 8 39 22 57 33 19 10 49 28 68 38 18 11 44 25 57 33
13 7 26 15 29 18 3 3 25 16 50 29 25 14 47 27 50 30 3 3 16 12 29 19 13 8 40
23 60 34 20 11 48 29 63 39 14 11 28 19 31 19 6 0 109 62 117 70 5 5 75 43
117 64 13 6 23 14 23 19 0 4 5 7 11 7 6 0 23 8 37 19 15 10 44 28 65 40 80 45
106 60 207 121 58 35 119 71 135 80 17 10 60 36 97 59 37 22 72 41 78 41 5 0
10 4 10 9 0 5 8 11 18 14 17 6 72 37 82 47 10 10 65 41 83 47 9 3 17 9 17 14
0 12 27 11 35 -1z m-1910 -47 c10 -13 7 -21 -15 -45 -25 -26 -50 -37 -50 -21
0 12 33 43 47 43 7 0 13 5 13 10 0 6 -4 10 -10 10 -5 0 -10 5 -10 10 0 15 11
12 25 -7z m1965 -68 c32 -64 34 -95 5 -95 -8 0 -15 -4 -15 -9 0 -5 -8 -11 -17
-14 -24 -8 -77 -40 -81 -49 -2 -5 -8 -8 -13 -8 -5 0 -39 -18 -75 -40 -36 -22
-68 -40 -71 -40 -3 0 -17 -8 -31 -19 -15 -10 -43 -28 -63 -39 -77 -43 -84 -47
-89 -53 -3 -3 -22 -13 -42 -22 -20 -10 -43 -23 -50 -30 -7 -7 -34 -23 -60 -37
-27 -14 -48 -28 -48 -32 0 -5 -9 -8 -20 -8 -11 0 -20 -4 -20 -9 0 -5 -8 -11
-17 -14 -20 -7 -95 -50 -135 -78 -14 -11 -31 -19 -37 -19 -6 0 -11 -4 -11 -10
0 -5 -4 -10 -10 -10 -5 0 -33 -14 -62 -31 -49 -30 -78 -46 -139 -81 -13 -7
-26 -15 -29 -18 -10 -10 -65 -41 -82 -47 -10 -3 -18 -9 -18 -14 0 -5 -5 -9
-10 -9 -6 0 -40 -18 -76 -40 -36 -22 -68 -40 -71 -40 -3 0 -17 -8 -31 -19 -40
-28 -115 -71 -134 -78 -10 -3 -18 -9 -18 -14 0 -5 -4 -9 -10 -9 -5 0 -33 -14
-62 -31 -49 -30 -78 -46 -139 -81 -13 -7 -26 -15 -29 -18 -7 -8 -72 -45 -92
-53 -28 -10 -11 18 20 34 15 8 34 22 43 31 9 10 21 18 26 18 5 0 18 8 29 18
10 10 35 29 54 42 19 13 43 32 53 41 10 9 48 32 85 50 37 18 93 50 124 71 31
21 62 38 67 38 6 0 11 4 11 9 0 5 9 13 20 16 11 4 32 17 45 31 13 13 28 24 33
24 4 0 18 9 30 20 11 11 37 29 56 40 20 11 52 29 71 40 19 11 52 30 72 41 21
12 56 33 78 48 38 25 81 48 168 85 31 14 50 36 31 36 -20 0 -204 -91 -204
-101 0 -5 -9 -9 -20 -9 -11 0 -20 -4 -20 -8 0 -5 -17 -17 -37 -29 -154 -83
-209 -116 -223 -133 -3 -3 -21 -17 -40 -30 -19 -13 -41 -30 -48 -37 -7 -7 -17
-13 -22 -13 -5 0 -15 -6 -22 -12 -13 -12 -33 -25 -83 -52 -11 -6 -22 -13 -25
-16 -5 -5 -75 -43 -117 -64 -13 -6 -23 -14 -23 -18 0 -5 -5 -8 -11 -8 -6 0
-33 -18 -59 -40 -26 -22 -51 -40 -54 -40 -4 0 -18 -11 -32 -25 -14 -14 -29
-25 -34 -25 -5 0 -19 -10 -32 -23 -13 -13 -31 -26 -41 -30 -9 -3 -17 -17 -17
-30 0 -16 -9 -28 -27 -38 -16 -8 -30 -16 -33 -19 -6 -6 -43 -27 -95 -54 -22
-12 -42 -23 -45 -26 -3 -3 -15 -11 -27 -17 -13 -7 -33 -19 -45 -25 -13 -7 -25
-15 -28 -18 -5 -5 -27 -18 -75 -44 -11 -6 -22 -13 -25 -17 -3 -3 -22 -13 -42
-22 -20 -10 -43 -23 -50 -30 -15 -13 -44 -31 -103 -61 -22 -12 -42 -23 -45
-26 -3 -3 -25 -16 -50 -29 -25 -14 -47 -27 -50 -30 -9 -11 -88 -51 -100 -51
-6 0 -17 6 -24 13 -24 25 -66 92 -66 107 0 14 99 80 121 80 5 0 9 3 9 8 0 4
23 18 50 31 28 14 50 29 50 33 0 4 9 8 20 8 11 0 20 4 20 8 0 5 17 17 38 29
20 11 53 29 73 41 20 11 47 26 60 34 13 7 26 15 29 18 3 3 25 16 50 29 25 14
47 27 50 30 6 7 39 26 95 55 22 12 42 24 45 27 3 3 25 16 50 30 25 13 47 26
50 29 3 3 15 11 28 17 12 7 32 19 45 25 12 7 24 15 27 18 3 3 26 17 53 30 26
14 47 28 47 32 0 5 5 8 10 8 6 0 41 19 78 41 37 23 85 51 107 63 22 11 42 23
45 26 3 3 25 16 50 29 25 14 47 27 50 30 3 3 16 12 29 19 13 8 39 22 57 33 19
10 49 28 68 38 18 11 44 25 57 33 13 7 26 15 29 18 3 3 15 11 28 18 12 6 32
18 45 25 12 6 24 14 27 17 3 3 15 11 28 18 12 6 32 18 45 25 12 6 24 14 27 17
3 3 19 12 35 20 17 8 55 30 85 50 30 20 69 42 85 50 17 8 32 17 35 20 5 5 17
12 89 52 20 11 41 24 46 28 6 4 27 17 48 29 20 12 54 30 75 42 20 12 42 25 47
29 6 4 26 17 46 28 72 40 84 47 89 52 6 6 41 26 80 47 14 7 79 46 145 87 66
41 127 74 136 75 10 1 28 -23 49 -64z m-1910 15 c0 -16 -4 -30 -9 -30 -12 0
-24 37 -16 50 12 20 25 10 25 -20z m-140 -40 c0 -5 -4 -10 -10 -10 -5 0 -10 5
-10 10 0 6 5 10 10 10 6 0 10 -4 10 -10z m-577 -38 c-3 -9 -19 -34 -34 -54
-16 -20 -29 -42 -29 -47 0 -6 -4 -11 -10 -11 -5 0 -10 9 -10 20 0 11 4 20 9
20 5 0 14 15 21 33 16 39 40 68 51 61 4 -2 5 -12 2 -22z m737 18 c0 -5 -4 -10
-10 -10 -5 0 -10 5 -10 10 0 6 5 10 10 10 6 0 10 -4 10 -10z m-242 -55 c-21
-17 -38 -38 -38 -44 0 -7 -13 -17 -30 -22 -16 -6 -30 -15 -30 -20 0 -5 -4 -9
-10 -9 -16 0 -12 30 5 36 8 4 29 19 46 35 17 16 37 29 45 29 8 0 14 6 14 14 0
8 6 16 13 19 27 9 20 -7 -15 -38z m109 -24 c-6 -14 -14 -30 -19 -35 -12 -15
-10 30 4 59 15 34 30 11 15 -24z m133 10 c0 -6 -4 -13 -10 -16 -5 -3 -10 1
-10 9 0 9 5 16 10 16 6 0 10 -4 10 -9z m40 -22 c0 -17 -4 -28 -10 -24 -5 3
-10 17 -10 31 0 13 5 24 10 24 6 0 10 -14 10 -31z m1910 -1 c7 -18 16 -42 20
-53 5 -11 11 -31 15 -45 3 -14 12 -47 19 -75 7 -27 18 -75 24 -105 6 -30 16
-80 22 -110 14 -66 8 -447 -8 -530 -16 -81 -29 -141 -41 -180 -5 -19 -13 -46
-16 -60 -4 -14 -10 -34 -15 -45 -4 -11 -14 -36 -20 -55 -52 -144 -179 -360
-296 -500 -102 -123 -297 -300 -331 -300 -13 0 -3 113 11 122 8 5 8 13 -1 27
-8 13 -9 22 -2 26 5 4 9 21 8 38 -2 18 -2 46 -1 63 2 31 3 31 46 27 35 -4 50
-1 72 16 21 16 41 21 90 21 36 0 64 4 64 10 0 6 -4 10 -10 10 -5 0 -10 4 -10
9 0 5 13 4 30 -2 16 -6 32 -8 36 -4 13 13 -6 37 -29 37 -13 0 -39 7 -57 16
-18 9 -60 21 -94 25 -34 4 -76 11 -94 15 l-33 6 7 87 c4 62 11 90 23 99 15 12
15 14 -1 26 -20 15 -24 36 -7 36 7 0 17 -8 24 -17 11 -15 15 -15 43 5 45 32
74 29 65 -8 -4 -15 -11 -17 -39 -13 -21 3 -34 1 -34 -5 0 -6 -8 -13 -17 -15
-47 -12 184 -5 265 8 96 16 124 27 154 59 28 30 9 39 -24 11 -19 -16 -37 -23
-49 -20 -11 4 -19 2 -19 -3 0 -5 -20 -9 -45 -9 -25 0 -45 4 -45 9 0 4 7 8 15
8 8 0 15 5 15 10 0 6 9 10 20 10 11 0 20 5 20 10 0 6 -9 10 -20 10 -11 0 -20
-4 -20 -10 0 -5 -7 -10 -15 -10 -17 0 -20 16 -5 25 6 4 8 10 5 15 -8 13 -45
-1 -56 -21 -8 -16 -21 -19 -74 -19 -35 0 -76 5 -90 12 -19 9 -28 9 -37 0 -22
-22 -26 -13 -23 46 2 31 4 58 4 60 1 1 9 -2 20 -7 14 -8 29 -5 59 9 45 22 77
26 87 10 3 -5 19 -10 35 -10 16 0 32 -4 35 -10 3 -5 19 -10 35 -10 16 0 32 -4
35 -10 9 -14 25 -12 25 3 0 13 -94 47 -130 47 -10 0 -22 5 -25 10 -3 6 -27 10
-53 10 -26 1 -63 9 -81 19 l-35 19 3 98 c1 55 5 101 8 104 2 3 12 5 21 5 11 0
29 25 51 70 l33 69 -26 53 c-14 30 -26 56 -26 58 0 11 30 3 76 -20 27 -14 54
-25 59 -25 15 0 125 53 125 60 0 12 -127 70 -153 70 -14 0 -42 -9 -62 -20 -20
-11 -38 -20 -40 -20 -12 0 -3 31 20 72 31 56 26 98 -20 152 l-33 39 -24 -54
c-35 -75 -36 -81 -27 -106 13 -35 -13 -29 -35 7 -9 17 -27 41 -39 53 -12 13
-32 38 -45 56 -24 32 -24 32 -3 38 12 3 21 9 21 13 0 4 8 10 18 14 18 6 62 30
105 59 24 16 47 29 135 78 20 12 42 25 47 29 6 4 26 17 46 28 72 40 84 47 89
52 3 3 25 16 50 29 25 14 47 27 50 30 7 8 103 60 111 61 4 0 12 -15 19 -32z
m-2118 -70 c-7 -7 -12 -8 -12 -2 0 14 12 26 19 19 2 -3 -1 -11 -7 -17z m-222
2 c0 -11 -33 -30 -51 -30 -8 0 -5 8 7 19 20 21 44 27 44 11z m436 -4 c15 -16
19 -52 6 -60 -4 -3 -14 -28 -22 -56 -8 -28 -18 -53 -22 -56 -16 -10 -8 58 12
99 12 25 16 43 10 45 -10 4 -14 42 -4 42 3 0 12 -6 20 -14z m-886 -30 c0 -8
-4 -18 -10 -21 -5 -3 -10 3 -10 14 0 12 5 21 10 21 6 0 10 -6 10 -14z m680
-16 c10 0 22 -5 25 -10 9 -14 35 7 35 26 0 8 5 14 10 14 13 0 13 -33 -1 -63
-7 -15 -25 -29 -47 -35 -38 -12 -56 -7 -32 9 13 8 11 12 -8 29 -18 15 -22 25
-16 42 7 19 9 20 12 6 2 -10 12 -18 22 -18z m450 -4 c0 -13 -40 -30 -49 -21
-2 3 4 14 14 25 18 20 35 18 35 -4z m-1120 -66 c0 -5 -4 -10 -10 -10 -5 0 -10
5 -10 10 0 6 5 10 10 10 6 0 10 -4 10 -10z m50 -3 c0 -2 -10 -12 -21 -23 -22
-19 -22 -19 -8 4 12 19 29 30 29 19z m463 -29 c-5 -22 -15 -50 -36 -95 -6 -13
-8 -26 -4 -29 8 -9 56 47 57 66 0 23 29 60 46 60 10 0 14 -12 14 -38 0 -34 -7
-46 -65 -101 -65 -63 -107 -84 -167 -82 -16 0 -28 -4 -28 -9 0 -6 -7 -10 -16
-10 -11 0 -14 5 -10 16 3 9 6 20 6 26 0 6 10 8 25 4 26 -7 61 8 82 34 18 22
74 134 78 156 2 10 4 20 4 22 1 1 5 2 10 2 5 0 7 -10 4 -22z m231 13 c13 -21
120 -95 139 -96 25 -2 30 -28 6 -33 -9 -2 -40 11 -68 28 -29 16 -54 30 -57 30
-10 0 -64 58 -64 69 0 13 36 15 44 2z m224 -2 c-2 -6 -7 -10 -11 -10 -4 1 -14
1 -23 1 -8 0 -12 5 -9 10 8 13 48 13 43 -1z m225 -19 c26 -16 51 -30 55 -30 4
0 23 -13 42 -30 19 -16 40 -29 46 -30 5 0 23 -13 39 -30 16 -16 35 -30 42 -30
7 0 13 -4 13 -10 0 -5 9 -10 20 -10 28 0 25 -14 -7 -31 -16 -8 -30 -16 -33
-19 -5 -5 -17 -12 -89 -52 -20 -11 -40 -24 -46 -28 -5 -4 -27 -17 -47 -29 -21
-12 -55 -30 -75 -42 -21 -12 -42 -25 -48 -29 -5 -4 -26 -17 -46 -28 -72 -40
-84 -47 -89 -52 -3 -3 -16 -11 -29 -18 -13 -8 -38 -22 -55 -31 -17 -10 -78
-46 -136 -81 -58 -35 -119 -71 -136 -81 -17 -9 -42 -23 -55 -31 -13 -7 -26
-15 -29 -18 -3 -3 -15 -11 -27 -17 -13 -7 -33 -19 -45 -25 -13 -7 -25 -15 -28
-18 -10 -10 -65 -41 -82 -47 -10 -3 -18 -9 -18 -14 0 -5 -4 -9 -10 -9 -5 0
-55 -27 -110 -60 -55 -33 -105 -60 -110 -60 -6 0 -10 -4 -10 -8 0 -5 -15 -16
-32 -25 -18 -9 -55 -30 -83 -47 -27 -17 -57 -33 -65 -37 -8 -4 -17 -9 -20 -12
-3 -3 -15 -12 -27 -18 -34 -19 -36 1 -3 32 15 15 34 47 41 71 8 24 17 44 21
44 4 0 8 15 8 34 0 19 4 37 9 40 5 4 12 25 16 49 9 52 35 139 46 151 5 6 9 20
9 32 0 12 8 39 18 61 58 120 74 161 92 229 12 47 19 52 98 60 53 5 81 13 124
35 10 5 24 9 32 9 44 0 216 124 216 156 0 6 7 17 15 24 9 7 23 28 31 46 9 19
22 34 29 34 15 0 139 -62 143 -72 2 -5 12 -8 23 -8 10 0 19 -4 19 -10 0 -5 13
-10 28 -10 20 0 33 7 42 25 11 21 79 75 95 75 3 0 19 14 37 30 21 20 41 30 63
30 17 0 52 -13 78 -30z m-771 -2 c-7 -7 -12 -8 -12 -2 0 14 12 26 19 19 2 -3
-1 -11 -7 -17z m-20 -40 c-7 -7 -12 -8 -12 -2 0 14 12 26 19 19 2 -3 -1 -11
-7 -17z m-20 -40 c-7 -7 -12 -8 -12 -2 0 14 12 26 19 19 2 -3 -1 -11 -7 -17z
m1043 -17 c3 -5 1 -12 -4 -15 -5 -3 -11 1 -15 9 -6 16 9 21 19 6z m-1062 -16
c-3 -9 -8 -14 -10 -11 -3 3 -2 9 2 15 9 16 15 13 8 -4z m-191 -37 c-7 -7 -12
-8 -12 -2 0 14 12 26 19 19 2 -3 -1 -11 -7 -17z m178 2 c0 -5 -5 -10 -11 -10
-5 0 -7 5 -4 10 3 6 8 10 11 10 2 0 4 -4 4 -10z m1731 -42 c28 -37 71 -91 79
-98 19 -18 60 -73 60 -81 0 -5 -21 0 -47 10 -47 18 -49 18 -93 0 -25 -11 -53
-22 -62 -25 -34 -12 -22 -26 54 -68 35 -20 54 -24 80 -19 l33 6 -30 -29 c-17
-16 -47 -42 -68 -57 -21 -16 -48 -38 -60 -50 -12 -12 -38 -34 -57 -48 -19 -15
-48 -38 -65 -52 -22 -20 -32 -24 -43 -15 -11 9 -7 16 19 36 17 14 41 35 53 46
12 12 41 37 66 57 92 75 105 89 78 89 -7 0 -31 -17 -53 -38 -22 -20 -60 -53
-85 -73 -25 -20 -58 -49 -75 -63 -36 -31 -46 -32 -70 -6 -10 11 -26 20 -36 20
-10 0 -21 5 -24 10 -3 6 -15 10 -26 10 -10 0 -19 4 -19 8 0 13 -82 32 -135 32
-27 -1 -70 -1 -94 0 -24 0 -49 -4 -55 -10 -5 -5 -18 -10 -29 -10 -11 0 -64
-47 -126 -110 -59 -60 -114 -110 -122 -110 -8 0 -19 -4 -24 -9 -6 -5 -46 -28
-90 -52 -44 -23 -91 -49 -105 -58 -14 -9 -36 -22 -50 -28 -14 -6 -43 -19 -65
-29 -22 -11 -78 -23 -125 -29 -80 -9 -85 -11 -83 -33 3 -20 -1 -22 -34 -20
-22 1 -38 -3 -41 -10 -2 -7 -9 -12 -16 -12 -7 0 -21 -8 -32 -18 -38 -36 -127
-90 -139 -86 -7 3 -16 1 -20 -5 -7 -13 -55 -15 -55 -3 0 5 12 15 28 23 15 8
29 16 32 19 3 3 14 10 25 16 49 27 70 39 75 44 3 3 26 17 53 30 26 14 47 28
47 32 0 5 4 8 10 8 5 0 33 14 62 31 49 30 78 46 139 81 13 7 26 15 29 18 3 3
16 11 29 18 63 36 90 52 141 82 51 30 78 46 141 82 13 7 26 15 29 18 3 3 25
16 50 29 25 14 47 27 50 30 3 3 14 11 25 17 89 47 111 60 115 65 3 3 25 16 50
30 25 13 47 26 50 29 3 3 15 11 28 18 12 6 32 18 45 25 12 6 24 14 27 18 3 3
22 13 42 22 20 10 43 23 50 30 7 6 31 21 53 33 52 27 89 48 95 54 3 3 14 10
25 16 50 27 70 39 75 45 3 3 22 13 42 22 20 10 43 23 50 30 19 17 71 46 84 47
6 0 22 -14 35 -32z m-1725 -57 c-11 -18 -75 -44 -92 -37 -24 9 1 36 35 36 14
0 33 4 41 10 17 10 25 6 16 -9z m-231 -61 c-5 -8 -11 -8 -17 -2 -6 6 -7 16 -3
22 5 8 11 8 17 2 6 -6 7 -16 3 -22z m-48 -140 c-11 -29 -27 -41 -27 -19 0 16
20 49 29 49 5 0 4 -13 -2 -30z m-87 -39 c0 -6 -4 -13 -10 -16 -5 -3 -10 1 -10
9 0 9 5 16 10 16 6 0 10 -4 10 -9z m2177 -124 c-52 -109 -77 -166 -77 -177 0
-5 -2 -10 -4 -10 -2 0 -11 -3 -20 -6 -10 -4 -16 -1 -16 9 0 8 -7 20 -15 27
-22 18 -19 32 18 70 17 19 43 51 57 70 13 19 32 42 42 51 10 9 18 21 18 26 0
5 6 15 12 21 26 26 19 -9 -15 -81z m-2117 73 c0 -5 -4 -10 -10 -10 -5 0 -10 5
-10 10 0 6 5 10 10 10 6 0 10 -4 10 -10z m2100 1 c0 -8 -33 -54 -57 -79 -8 -8
-26 -30 -41 -50 -57 -78 -78 -91 -116 -76 -16 6 -23 34 -8 34 4 0 21 13 37 28
17 15 50 43 75 62 25 19 56 47 70 62 26 28 40 35 40 19z m-638 -89 c4 -4 -2
-16 -13 -26 -20 -17 -21 -17 -14 3 3 12 4 21 0 21 -12 0 -61 -29 -99 -59 -45
-36 -56 -38 -56 -12 0 23 54 71 80 71 10 0 22 5 26 11 7 11 62 5 76 -9z m178
-10 c9 -12 49 -32 64 -32 17 0 48 -39 40 -52 -7 -11 -44 -10 -44 2 0 6 -7 10
-15 10 -8 0 -19 9 -25 20 -6 11 -17 20 -25 20 -9 0 -24 5 -35 12 -10 7 -22 9
-26 5 -11 -10 16 -37 38 -37 16 0 88 -60 88 -73 0 -12 -59 1 -74 16 -20 19
-20 19 -99 -40 -54 -41 -77 -51 -77 -36 0 3 18 21 39 40 33 28 39 39 36 63 -2
16 -10 39 -18 51 -29 40 -12 52 62 45 36 -4 68 -10 71 -14z m543 9 c4 -1 7 -6
7 -12 0 -5 -10 -9 -22 -7 -21 3 -23 -1 -25 -47 -4 -76 -24 -155 -40 -155 -8 0
-24 7 -37 16 l-24 15 30 62 c31 62 42 88 51 118 3 10 14 15 29 13 12 -1 26 -3
31 -3z m-760 -55 c4 -10 0 -12 -14 -9 -10 3 -19 0 -19 -6 0 -6 -5 -11 -11 -11
-6 0 -27 -16 -47 -35 -20 -19 -40 -35 -44 -35 -4 0 -14 -7 -23 -16 -9 -9 -19
-13 -23 -9 -4 3 0 10 8 15 8 5 47 33 85 64 39 31 73 56 76 56 4 0 9 -6 12 -14z
m72 -16 c-3 -5 -10 -10 -16 -10 -5 0 -9 5 -9 10 0 6 7 10 16 10 8 0 12 -4 9
-10z m-255 -34 c0 -7 -6 -19 -14 -25 -19 -16 -32 5 -16 24 16 19 30 19 30 1z
m149 -12 c-32 -34 -79 -68 -86 -61 -7 7 35 47 72 69 40 24 43 22 14 -8z m411
6 c0 -6 -10 -18 -21 -28 -12 -9 -31 -26 -43 -37 -59 -54 -108 -86 -123 -80
-13 4 -4 17 43 60 32 30 65 54 71 55 7 0 18 9 25 20 13 21 48 28 48 10z
m-1900 -25 c0 -8 -4 -15 -10 -15 -5 0 -10 7 -10 15 0 8 5 15 10 15 6 0 10 -7
10 -15z m1970 6 c0 -5 10 -11 23 -13 20 -3 19 -5 -12 -22 -27 -14 -35 -15 -42
-5 -4 8 -11 10 -15 6 -4 -3 4 -15 17 -26 l24 -19 -21 -29 c-13 -16 -29 -27
-40 -25 -11 2 -38 3 -61 2 -23 0 -44 4 -48 9 -7 13 45 61 67 61 10 0 18 5 18
10 0 20 45 59 68 59 12 1 22 -3 22 -8z m-470 -46 c-7 -9 -15 -13 -17 -11 -7 7
7 26 19 26 6 0 6 -6 -2 -15z m250 7 c0 -4 -9 -13 -20 -20 -22 -13 -23 -12 -14
12 6 16 34 23 34 8z m310 0 c0 -5 11 -15 25 -22 14 -7 25 -17 25 -21 0 -5 -12
-34 -26 -66 -15 -32 -33 -72 -40 -90 -11 -23 -19 -30 -31 -26 -10 4 -21 -1
-30 -13 -12 -16 -15 -17 -23 -4 -6 10 -4 17 8 24 9 5 19 10 21 12 2 2 -8 22
-23 44 -32 49 -32 55 -2 85 14 14 33 38 42 55 17 27 54 42 54 22z m-779 -17
c0 -13 -41 -19 -41 -7 0 11 20 22 33 18 5 -1 8 -6 8 -11z m399 6 c0 -12 -20
-25 -27 -18 -7 7 6 27 18 27 5 0 9 -4 9 -9z m-260 -61 c-6 -11 -15 -18 -20
-15 -13 8 0 35 16 35 12 0 12 -4 4 -20z m100 5 c0 -8 -4 -15 -10 -15 -5 0 -10
7 -10 15 0 8 5 15 10 15 6 0 10 -7 10 -15z m160 9 c0 -13 -30 -34 -48 -34 -26
0 -34 11 -21 27 11 12 69 19 69 7z m-350 -19 c0 -8 -5 -15 -12 -15 -6 0 -22
-10 -35 -22 -20 -19 -23 -19 -23 -4 0 9 8 20 18 23 9 4 23 13 30 20 17 17 22
16 22 -2z m250 11 c0 -2 -7 -7 -16 -10 -8 -3 -12 -2 -9 4 6 10 25 14 25 6z
m585 -16 c3 -5 15 -10 26 -10 11 0 27 -6 35 -14 7 -8 19 -17 26 -20 10 -5 10
-7 1 -12 -9 -4 -13 -32 -13 -91 0 -61 -3 -84 -12 -81 -11 4 -13 122 -2 140 3
5 2 17 -1 28 -11 34 -25 12 -25 -38 0 -26 -3 -71 -6 -99 -6 -47 -9 -53 -30
-53 -30 0 -31 -14 -3 -33 20 -15 20 -18 8 -111 l-13 -96 -33 0 c-31 0 -32 2
-27 30 4 16 1 43 -6 60 -7 17 -9 37 -5 47 5 10 9 22 9 26 1 4 7 11 14 16 11 7
8 19 -13 59 -23 44 -25 54 -14 74 7 13 19 28 27 34 18 13 7 35 -13 27 -22 -8
-19 23 8 79 21 46 47 62 62 38z m-375 -35 c15 -18 6 -45 -14 -45 -7 0 -16 10
-19 22 -10 37 10 51 33 23z m-2510 1 c0 -3 -4 -8 -10 -11 -5 -3 -10 -1 -10 4
0 6 5 11 10 11 6 0 10 -2 10 -4z m1833 -28 c-18 -18 -36 -29 -39 -25 -10 10
36 57 55 57 11 0 6 -10 -16 -32z m407 23 c0 -6 -5 -13 -10 -16 -6 -4 -8 -10
-6 -14 3 -4 -8 -5 -25 -3 -32 5 -40 28 -11 35 31 8 52 7 52 -2z m339 -13 c9
-23 6 -38 -7 -38 -12 0 -33 40 -27 50 10 17 25 11 34 -12z m-649 8 c0 -3 -13
-14 -30 -26 -16 -12 -30 -18 -30 -13 0 5 12 16 28 25 30 19 32 20 32 14z m126
-8 c-3 -7 -9 -21 -12 -30 -7 -20 -20 -23 -29 -7 -4 5 1 19 11 30 19 21 39 26
30 7z m44 2 c0 -5 -5 -10 -11 -10 -5 0 -7 5 -4 10 3 6 8 10 11 10 2 0 4 -4 4
-10z m40 -11 c0 -5 -4 -9 -10 -9 -5 0 -10 7 -10 16 0 8 5 12 10 9 6 -3 10 -10
10 -16z m-1460 -3 c0 -8 -4 -18 -10 -21 -5 -3 -10 -16 -10 -27 0 -25 -27 -58
-47 -58 -19 0 -16 13 7 28 13 8 20 23 20 45 0 19 3 37 7 40 12 12 33 7 33 -7z
m2350 -1 c0 -17 -2 -18 -24 -9 -23 9 -20 24 4 24 11 0 20 -7 20 -15z m-580
-20 c7 -14 10 -28 6 -32 -10 -10 -48 36 -40 48 9 15 20 10 34 -16z m-701 -21
c-6 -8 -8 -18 -4 -22 4 -4 10 -1 12 6 7 20 33 14 33 -8 0 -18 -7 -20 -70 -20
-40 0 -70 4 -70 10 0 6 10 10 23 10 12 0 34 11 47 24 26 25 50 25 29 0z m888
-1 c-3 -16 2 -43 10 -61 9 -18 13 -35 10 -38 -3 -3 -13 12 -22 33 -9 21 -21
46 -27 57 -7 14 -6 21 4 27 23 15 30 10 25 -18z m-773 -9 c3 -8 10 -12 16 -9
5 3 10 -1 10 -9 0 -12 -10 -16 -40 -16 -33 0 -38 3 -33 18 12 32 37 41 47 16z
m696 2 c0 -3 -4 -8 -10 -11 -5 -3 -10 -1 -10 4 0 6 5 11 10 11 6 0 10 -2 10
-4z m-2572 -28 c-3 -7 -14 -17 -26 -23 -12 -5 -22 -13 -22 -17 0 -5 -9 -8 -20
-8 -11 0 -20 5 -20 10 0 6 6 10 13 10 8 0 22 9 33 19 22 22 48 27 42 9z m2288
1 c10 -17 -13 -36 -27 -22 -12 12 -4 33 11 33 5 0 12 -5 16 -11z m-347 -25
c-6 -8 -15 -14 -20 -14 -14 0 -11 28 4 33 20 7 29 -4 16 -19z m172 6 c5 0 9
-7 9 -15 0 -20 -7 -19 -33 6 -18 18 -19 21 -4 15 10 -3 23 -6 28 -6z m237 -14
c3 -12 -1 -17 -10 -14 -7 3 -15 13 -16 22 -3 12 1 17 10 14 7 -3 15 -13 16
-22z m246 8 c3 -9 3 -20 0 -25 -8 -13 -34 9 -34 27 0 19 26 18 34 -2z m196
-15 c0 -5 -4 -9 -10 -9 -5 0 -10 7 -10 16 0 8 5 12 10 9 6 -3 10 -10 10 -16z
m-1285 -27 c-9 -9 -35 8 -35 24 0 16 2 16 20 -1 11 -10 18 -20 15 -23z m131
27 c3 -6 15 -8 26 -6 24 7 48 -1 48 -15 0 -10 -72 -5 -102 7 -10 4 -15 11 -12
16 7 12 31 11 40 -2z m214 7 c0 -11 -19 -15 -25 -6 -3 5 1 10 9 10 9 0 16 -2
16 -4z m-300 -26 c0 -5 7 -10 15 -10 13 0 95 -75 95 -87 0 -1 -7 -3 -15 -3
-12 0 -115 94 -115 105 0 3 5 5 10 5 6 0 10 -4 10 -10z m236 -4 c20 -21 17
-28 -8 -24 -13 2 -24 11 -26 21 -4 21 14 22 34 3z m535 -8 c28 -34 23 -47 -6
-16 -14 15 -25 30 -25 33 0 11 13 4 31 -17z m444 3 c3 -5 1 -12 -5 -16 -5 -3
-10 1 -10 9 0 18 6 21 15 7z m-695 -27 c0 -20 -4 -25 -16 -20 -9 3 -18 6 -20
6 -2 0 -4 9 -4 20 0 13 7 20 20 20 15 0 20 -7 20 -26z m219 0 c3 -16 1 -17
-13 -5 -19 16 -21 34 -3 29 6 -3 14 -13 16 -24z m-2229 -4 c0 -10 -69 -60 -82
-60 -5 0 -8 7 -8 15 0 8 6 15 13 15 8 0 22 9 33 19 20 21 44 27 44 11z m1356
-4 c16 -17 19 -63 4 -68 -20 -6 13 -58 38 -58 24 0 44 31 24 38 -13 4 -17 32
-5 32 3 0 15 -7 25 -17 26 -24 34 -9 9 18 -26 29 -27 49 -1 49 15 0 20 -7 20
-29 0 -19 10 -36 32 -54 29 -25 31 -28 18 -52 -14 -25 -53 -35 -65 -15 -3 6
-15 10 -26 10 -10 0 -19 -4 -19 -10 0 -17 -14 -11 -48 19 -33 31 -45 85 -19
94 10 3 10 9 0 26 -21 34 -14 43 13 17z m54 4 c0 -5 -4 -10 -10 -10 -5 0 -10
5 -10 10 0 6 5 10 10 10 6 0 10 -4 10 -10z m420 0 c0 -5 -2 -10 -4 -10 -3 0
-8 5 -11 10 -3 6 -1 10 4 10 6 0 11 -4 11 -10z m100 -5 c0 -8 -4 -15 -10 -15
-5 0 -10 7 -10 15 0 8 5 15 10 15 6 0 10 -7 10 -15z m-707 -27 c-13 -12 -26
-19 -29 -15 -4 4 1 14 12 22 29 22 41 18 17 -7z m527 7 c0 -8 5 -15 10 -15 6
0 10 -7 10 -15 0 -8 -3 -15 -6 -15 -12 0 -44 43 -38 51 8 14 24 10 24 -6z
m1405 5 c3 -5 0 -10 -9 -10 -8 0 -16 -6 -19 -12 -2 -7 -8 -10 -12 -6 -11 11 2
38 19 38 8 0 18 -4 21 -10z m-1845 -51 c0 -51 -13 -89 -30 -89 -6 0 -10 11
-10 25 0 14 5 25 10 25 6 0 10 20 10 45 0 25 5 45 10 45 6 0 10 -23 10 -51z
m500 30 c0 -14 -17 -10 -23 5 -4 10 -1 13 9 9 7 -3 14 -9 14 -14z m-1454 -25
c-15 -14 -31 -22 -35 -19 -3 4 7 17 24 30 38 31 49 21 11 -11z m1209 -14 c49
-50 95 -67 95 -35 0 18 5 18 31 5 10 -6 19 -16 19 -23 0 -17 -91 -21 -102 -4
-6 9 -10 9 -19 -3 -9 -13 -12 -12 -22 4 -7 11 -27 36 -44 56 -18 21 -33 40
-33 44 0 19 32 0 75 -44z m-1059 13 c-10 -10 -19 5 -10 18 6 11 8 11 12 0 2
-7 1 -15 -2 -18z m744 -13 c0 -17 -6 -40 -12 -53 -7 -12 -14 -23 -15 -25 -1
-2 -11 2 -23 8 -19 10 -20 14 -8 28 8 9 20 29 28 45 18 35 30 34 30 -3z m550
0 c0 -5 -2 -10 -4 -10 -3 0 -8 5 -11 10 -3 6 -1 10 4 10 6 0 11 -4 11 -10z
m1090 -54 c0 -36 -4 -68 -10 -71 -5 -3 -10 -15 -10 -26 0 -10 -4 -19 -10 -19
-5 0 -10 20 -10 44 0 25 5 48 10 51 6 3 10 24 10 46 0 21 5 39 10 39 6 0 10
-28 10 -64z m-800 39 c0 -8 -4 -15 -9 -15 -5 0 -12 -10 -16 -22 -6 -19 -8 -20
-12 -6 -5 19 13 58 27 58 6 0 10 -7 10 -15z m180 -10 c9 -10 3 -13 -25 -12
-31 1 -45 14 -29 29 8 9 42 -2 54 -17z m-2200 7 c0 -5 -12 -15 -27 -23 -16 -8
-37 -22 -47 -31 -25 -22 -40 -23 -32 -2 3 9 6 18 6 20 0 2 6 4 13 4 6 0 23 9
37 20 26 20 50 26 50 12z m450 -7 c0 -8 -15 -22 -32 -31 -18 -9 -35 -20 -38
-23 -18 -22 -80 -40 -80 -23 0 10 122 91 138 91 6 1 12 -6 12 -14z m1950 -1
c0 -8 -5 -12 -10 -9 -6 4 -8 11 -5 16 9 14 15 11 15 -7z m-69 -4 c5 0 9 -9 9
-20 0 -16 -7 -20 -32 -20 -35 0 -68 -24 -68 -50 0 -9 -4 -20 -9 -25 -5 -6 -11
-23 -13 -40 -4 -27 -5 -28 -13 -10 -5 11 -13 23 -18 26 -10 7 31 69 45 69 4 0
8 4 8 9 0 17 55 69 68 65 8 -2 18 -4 23 -4z m-1273 -28 c4 -23 -13 -31 -21 -9
-3 8 -10 7 -26 -7 -26 -24 -30 -2 -3 25 22 24 46 20 50 -9z m646 13 c11 -8 15
-15 10 -15 -6 0 -19 7 -30 15 -10 8 -14 14 -9 14 6 0 19 -6 29 -14z m744 -9
c3 -12 -1 -17 -10 -14 -7 3 -15 13 -16 22 -3 12 1 17 10 14 7 -3 15 -13 16
-22z m-2153 -6 c3 -5 2 -10 -4 -10 -5 0 -13 5 -16 10 -3 6 -2 10 4 10 5 0 13
-4 16 -10z m565 3 c0 -5 -23 -19 -51 -33 -27 -13 -57 -32 -66 -42 -17 -19 -53
-25 -53 -8 0 6 6 10 14 10 8 0 16 3 18 8 4 9 57 41 81 49 9 3 17 9 17 14 0 5
9 9 20 9 11 0 20 -3 20 -7z m1080 -18 c0 -8 5 -24 12 -35 15 -24 4 -37 -17
-20 -17 14 -21 70 -5 70 6 0 10 -7 10 -15z m-680 1 c0 -3 -4 -8 -10 -11 -5 -3
-10 -1 -10 4 0 6 5 11 10 11 6 0 10 -2 10 -4z m920 -10 c0 -3 -4 -8 -10 -11
-5 -3 -10 -1 -10 4 0 6 5 11 10 11 6 0 10 -2 10 -4z m240 -17 c0 -5 -4 -9 -10
-9 -5 0 -10 7 -10 16 0 8 5 12 10 9 6 -3 10 -10 10 -16z m-342 0 c-2 -6 -8
-10 -13 -10 -5 0 -11 4 -13 10 -2 6 4 11 13 11 9 0 15 -5 13 -11z m-86 -31
c-9 -9 -12 -7 -12 12 0 19 3 21 12 12 9 -9 9 -15 0 -24z m-1718 3 c6 -9 -66
-61 -84 -61 -5 0 -10 -3 -10 -7 0 -5 -10 -13 -23 -19 -12 -6 -60 -35 -107 -64
-47 -29 -101 -62 -120 -73 -19 -10 -47 -28 -62 -38 -14 -11 -29 -19 -33 -19
-3 0 -33 -18 -65 -40 -32 -22 -62 -40 -66 -40 -4 0 -22 -11 -40 -25 -36 -27
-44 -30 -44 -15 0 14 72 79 88 80 6 0 12 4 12 8 0 4 22 19 50 33 27 13 50 27
50 32 0 4 6 7 13 7 7 0 22 8 33 18 10 9 42 28 69 42 28 13 75 40 105 60 30 20
78 47 105 60 28 14 57 32 65 41 23 25 55 35 64 20z m234 -11 c7 -11 9 -20 4
-20 -10 0 -32 22 -32 32 0 15 15 8 28 -12z m1387 10 c3 -5 1 -10 -4 -10 -6 0
-11 5 -11 10 0 6 2 10 4 10 3 0 8 -4 11 -10z m-955 -10 c0 -5 -2 -10 -4 -10
-3 0 -8 5 -11 10 -3 6 -1 10 4 10 6 0 11 -4 11 -10z m920 1 c0 -6 -4 -13 -10
-16 -5 -3 -10 1 -10 9 0 9 5 16 10 16 6 0 10 -4 10 -9z m278 -19 c3 -17 -2
-22 -17 -22 -16 0 -21 -6 -21 -25 0 -14 -5 -25 -11 -25 -10 0 -6 49 7 84 9 24
38 16 42 -12z m442 8 c0 -11 -4 -20 -10 -20 -5 0 -10 9 -10 20 0 11 5 20 10
20 6 0 10 -9 10 -20z m-1895 -10 c9 -14 52 -13 57 2 3 7 9 8 19 3 19 -12 118
-15 125 -4 3 5 12 9 20 9 11 0 13 -6 9 -21 -7 -20 -5 -22 28 -16 66 10 77 2
77 -59 0 -39 -4 -56 -15 -60 -8 -4 -15 -10 -15 -15 0 -5 7 -9 15 -9 8 0 15 -9
15 -20 0 -12 -6 -20 -12 -19 -7 1 -31 1 -53 0 -35 -1 -38 -3 -23 -15 21 -15
73 -9 89 10 17 21 39 17 39 -7 0 -26 22 -20 35 9 8 18 18 22 56 22 60 0 86
-25 51 -48 -12 -8 -22 -18 -22 -23 0 -12 42 -11 74 1 32 12 34 28 4 32 -34 5
-37 38 -4 38 18 0 26 -5 26 -17 1 -17 1 -17 14 0 21 27 69 22 83 -9 15 -33 10
-44 -33 -73 -19 -13 -52 -40 -73 -60 -43 -41 -96 -81 -109 -81 -4 0 -20 5 -34
12 -23 11 -24 14 -12 33 13 19 11 23 -16 44 -31 22 -50 21 -50 -5 0 -19 -19
-18 -26 1 -4 9 -19 15 -36 15 -27 0 -29 -2 -23 -34 6 -28 4 -34 -15 -39 -28
-7 -23 -44 5 -39 76 14 95 14 95 0 0 -7 10 -22 22 -32 l21 -18 -51 -49 c-29
-27 -55 -49 -60 -49 -14 0 -62 25 -62 33 0 4 -5 7 -11 7 -30 0 -235 157 -336
258 -125 123 -163 181 -120 182 7 0 23 9 37 20 14 11 34 20 46 20 11 0 29 9
39 20 10 11 24 20 32 20 7 0 13 4 13 8 0 8 36 30 52 31 4 1 10 -3 13 -9z m499
-9 c22 -24 13 -41 -20 -41 -18 0 -24 5 -24 23 0 41 17 48 44 18z m56 -16 c0
-19 -4 -35 -10 -35 -11 0 -14 53 -3 63 11 12 13 8 13 -28z m400 9 c0 -19 -4
-25 -15 -21 -8 4 -17 2 -20 -3 -4 -6 -22 -10 -42 -10 -28 0 -34 3 -29 16 3 9
6 20 6 25 0 6 14 7 34 4 20 -4 36 -2 40 4 13 20 26 12 26 -15z m103 12 c7 -19
-28 -50 -48 -43 -15 6 -21 38 -8 50 12 12 51 7 56 -7z m555 4 c7 0 12 -14 12
-36 0 -43 -22 -42 -30 2 -4 19 -8 25 -13 17 -13 -20 -27 -15 -27 8 0 17 4 20
23 15 12 -3 28 -6 35 -6z m-1238 -4 c0 -3 -4 -8 -10 -11 -5 -3 -10 -1 -10 4 0
6 5 11 10 11 6 0 10 -2 10 -4z m760 -15 c0 -24 -18 -37 -32 -23 -8 8 -7 16 2
27 17 21 30 19 30 -4z m634 2 c9 -23 -12 -43 -24 -23 -5 8 -10 21 -10 28 0 18
27 15 34 -5z m66 3 c0 -17 -27 -29 -35 -16 -4 6 -3 15 0 20 9 15 35 12 35 -4z
m-1410 -6 c0 -5 -7 -10 -15 -10 -8 0 -15 5 -15 10 0 6 7 10 15 10 8 0 15 -4
15 -10z m200 -5 c10 -12 10 -18 0 -30 -25 -30 -61 -7 -46 30 3 8 12 15 19 15
8 0 20 -7 27 -15z m98 3 c20 -20 14 -30 -15 -26 -32 4 -46 38 -16 38 11 0 24
-5 31 -12z m92 -3 c0 -21 -30 -31 -41 -14 -14 23 -11 29 16 29 16 0 25 -6 25
-15z m495 5 c3 -5 1 -10 -4 -10 -6 0 -11 5 -11 10 0 6 2 10 4 10 3 0 8 -4 11
-10z m171 -37 c-10 -10 -19 5 -10 18 6 11 8 11 12 0 2 -7 1 -15 -2 -18z m-166
-3 c0 -5 -4 -10 -10 -10 -5 0 -10 5 -10 10 0 6 5 10 10 10 6 0 10 -4 10 -10z
m-180 -41 c0 -5 -7 -9 -15 -9 -15 0 -20 12 -9 23 8 8 24 -1 24 -14z m-60 3 c0
-19 -27 -32 -64 -32 -43 0 -42 12 2 18 15 2 31 7 37 13 11 11 25 12 25 1z
m-442 -34 c4 -21 -9 -23 -26 -6 -9 9 -12 9 -12 0 0 -8 -22 -12 -70 -12 -54 0
-70 3 -70 14 0 19 8 21 97 21 66 0 78 -3 81 -17z m290 5 c-4 -22 -48 -29 -79
-13 -17 10 -23 9 -30 -1 -6 -10 -11 -10 -22 0 -10 7 -34 10 -66 7 -40 -4 -51
-2 -51 9 0 12 22 15 126 15 114 0 125 -2 122 -17z m-488 -8 c0 -10 -11 -15
-35 -15 -33 0 -43 8 -28 23 13 14 63 7 63 -8z m1620 -59 c0 -14 -5 -28 -11
-31 -6 -4 -8 -13 -5 -21 3 -7 -2 -18 -11 -23 -14 -7 -15 -13 -3 -40 9 -24 10
-41 1 -75 -6 -25 -11 -70 -11 -100 0 -51 -3 -57 -32 -79 -43 -31 -245 -127
-268 -127 -6 0 -18 -4 -28 -10 -9 -5 -39 -16 -67 -24 -27 -8 -58 -17 -67 -21
-14 -5 -18 -2 -18 14 0 12 4 21 9 21 5 0 11 8 14 18 4 9 17 35 30 57 18 29 30
39 46 38 12 -2 21 3 21 11 0 10 28 13 122 15 67 1 124 4 127 6 10 10 -10 18
-59 23 -55 5 -65 21 -28 46 21 15 22 17 5 33 -16 16 -19 16 -28 3 -8 -11 -12
-12 -16 -2 -6 14 -69 16 -78 2 -10 -17 -25 -11 -25 9 0 15 24 71 47 110 1 1 7
-1 15 -5 18 -11 61 -10 65 2 1 5 -1 15 -6 23 -8 12 -12 12 -26 -2 -21 -21 -35
-22 -35 -1 0 27 -24 9 -44 -32 -10 -21 -27 -56 -37 -77 -11 -22 -19 -45 -19
-52 0 -7 -6 -18 -14 -24 -12 -10 -17 -9 -24 6 -11 20 6 75 27 87 6 4 11 15 11
26 0 10 9 35 19 57 11 21 30 62 43 91 20 45 26 52 46 47 15 -4 24 0 28 10 5
12 30 15 145 15 l139 0 0 -24z m50 7 c0 -34 -12 -63 -26 -63 -15 0 -18 21 -8
58 7 26 34 30 34 5z m-410 -13 c0 -5 -4 -10 -10 -10 -5 0 -10 -7 -10 -15 0 -8
-9 -30 -20 -50 -11 -20 -20 -42 -20 -49 0 -7 -9 -21 -20 -31 -20 -18 -21 -18
-41 3 -11 12 -27 22 -37 23 -35 2 -117 -3 -121 -7 -11 -10 13 -17 64 -17 45 0
55 -3 55 -17 0 -9 9 -25 20 -35 24 -22 25 -44 5 -82 -9 -15 -20 -40 -25 -55
-6 -18 -17 -28 -30 -28 -11 0 -23 -7 -26 -15 -7 -18 -39 -12 -66 12 -16 14
-16 18 -2 45 15 28 15 29 -11 22 -15 -4 -25 -2 -25 5 0 6 7 11 15 11 12 0 14
7 9 28 -4 15 -8 29 -11 31 -6 8 -32 -34 -33 -54 -1 -25 -27 -61 -37 -51 -4 4
-2 16 5 27 16 25 8 39 -22 39 -13 0 -29 7 -36 15 -17 20 -30 19 -30 -2 -1 -23
-23 -53 -39 -53 -7 0 -19 -7 -27 -15 -9 -8 -20 -15 -25 -15 -15 0 -10 22 9 39
10 9 29 32 42 51 28 41 78 90 91 90 5 0 9 -8 9 -19 0 -10 7 -25 16 -32 13 -11
17 -10 25 4 6 9 16 17 23 17 11 0 46 64 46 84 0 5 -11 5 -26 2 -20 -5 -24 -3
-22 11 3 20 -1 20 -49 8 -19 -4 -33 -14 -33 -23 0 -8 -8 -22 -18 -31 -10 -9
-29 -32 -42 -51 -13 -19 -27 -37 -30 -40 -3 -3 -17 -21 -30 -40 -13 -19 -32
-41 -42 -48 -10 -7 -18 -19 -18 -27 0 -8 -13 -22 -30 -32 -16 -9 -30 -24 -30
-31 0 -12 -34 -68 -50 -82 -3 -3 -21 -26 -40 -52 -19 -26 -41 -48 -47 -48 -20
0 -16 15 12 48 14 17 25 33 25 37 0 4 8 15 18 24 10 9 29 32 42 51 13 19 41
52 62 73 21 21 38 43 38 49 0 6 8 18 18 27 10 9 29 32 42 51 13 19 27 37 30
40 7 7 50 60 80 100 45 61 41 59 183 59 151 0 213 7 221 27 6 16 26 19 26 4z
m-439 -68 c-11 -15 -36 -45 -55 -67 -20 -22 -36 -43 -36 -46 0 -9 -74 -89 -83
-89 -3 0 2 16 13 35 21 38 26 75 10 75 -5 0 -10 -11 -10 -25 0 -30 -26 -34
-46 -7 -21 27 -16 50 13 64 15 7 29 22 31 33 7 36 23 45 81 45 31 0 63 4 71 9
25 16 31 1 11 -27z m-484 13 c2 -6 -9 -18 -24 -27 -16 -9 -48 -36 -73 -60 -26
-24 -62 -51 -81 -60 -19 -10 -41 -27 -48 -40 -10 -19 -77 -74 -103 -86 -19 -8
-6 27 15 41 12 8 42 33 67 57 24 23 58 51 75 63 27 20 84 70 125 111 17 16 41
17 47 1z m53 -5 c0 -5 -4 -10 -10 -10 -5 0 -10 5 -10 10 0 6 5 10 10 10 6 0
10 -4 10 -10z m200 -15 c27 -24 25 -38 -4 -31 -15 4 -28 0 -36 -9 -7 -9 -21
-13 -31 -10 -23 7 -25 -10 -5 -31 19 -18 46 -18 46 1 0 8 5 15 11 15 6 0 9
-14 7 -32 -2 -28 -8 -34 -30 -36 -20 -2 -28 1 -28 12 0 11 -9 16 -30 16 -32 0
-42 -23 -15 -34 30 -11 4 -35 -43 -38 -41 -3 -47 -6 -50 -27 -4 -27 -29 -57
-40 -47 -3 4 -1 16 6 26 7 11 12 26 12 35 0 8 9 31 20 51 20 34 19 65 0 34 -7
-12 -12 -12 -22 -2 -15 15 -54 16 -64 1 -3 -6 -17 -8 -30 -5 -31 8 -32 -16 -1
-29 17 -8 22 -17 20 -46 -3 -53 -44 -139 -67 -139 -15 0 -17 -5 -12 -26 6 -24
5 -25 -9 -11 -17 17 -20 47 -5 47 14 0 12 74 -2 88 -19 19 -31 14 -26 -13 6
-29 -9 -33 -28 -7 -20 26 -17 46 12 73 25 24 26 24 41 4 8 -11 20 -33 25 -48
10 -28 10 -28 29 -8 11 11 19 32 19 46 0 27 -9 32 -27 14 -8 -8 -14 -5 -23 11
-11 20 -8 26 26 56 22 19 54 48 73 64 36 32 53 38 49 18 -2 -9 10 -13 37 -13
33 0 40 4 41 20 1 11 2 24 3 29 2 16 130 0 151 -19z m1060 -29 c8 -11 9 -39 5
-98 -7 -79 -24 -128 -45 -128 -13 0 -13 55 0 99 5 19 10 58 11 88 2 55 8 63
29 39z m-730 -51 c0 -8 -4 -17 -10 -20 -6 -4 -10 5 -10 20 0 15 4 24 10 20 6
-3 10 -12 10 -20z m-900 -100 c0 -20 -27 -26 -41 -9 -10 13 -10 17 1 24 17 10
40 2 40 -15z m570 -10 c0 -8 -7 -15 -16 -15 -14 0 -14 3 -4 15 7 8 14 15 16
15 2 0 4 -7 4 -15z m-490 -35 c0 -5 -4 -10 -10 -10 -5 0 -10 5 -10 10 0 6 5
10 10 10 6 0 10 -4 10 -10z m540 0 c0 -5 -4 -10 -10 -10 -5 0 -21 -17 -34 -37
-13 -21 -34 -49 -46 -63 -12 -14 -34 -41 -49 -60 -14 -19 -38 -48 -53 -65 -16
-16 -28 -33 -28 -38 0 -4 -10 -5 -22 -3 -93 18 -147 29 -168 36 -14 5 -47 14
-73 22 -39 10 -51 19 -64 47 -16 33 -16 35 5 52 12 9 22 29 22 43 0 14 5 26
10 26 6 0 10 -18 10 -40 0 -22 4 -40 9 -40 5 0 13 -9 16 -20 4 -11 15 -20 27
-20 11 0 22 -8 25 -20 4 -14 14 -20 34 -20 16 0 29 5 29 10 0 6 -9 10 -20 10
-21 0 -27 15 -10 25 6 4 9 18 8 32 -2 14 3 28 10 30 6 3 12 -2 12 -10 0 -9 6
-18 13 -21 10 -5 10 -7 0 -12 -19 -9 -16 -24 5 -24 10 0 23 -5 30 -12 9 -9 17
-7 33 11 15 16 24 20 32 12 17 -17 27 -13 37 14 9 24 30 35 30 15 0 -5 5 -10
10 -10 6 0 10 11 10 24 0 13 7 29 15 36 9 7 13 21 10 31 -7 22 14 26 33 7 6
-6 15 -8 19 -3 5 4 2 10 -4 12 -26 9 -13 25 16 20 20 -4 31 -2 35 8 6 17 36
21 36 5z m208 -7 c-5 -25 -28 -28 -28 -4 0 12 6 21 16 21 9 0 14 -7 12 -17z
m-388 -16 c0 -14 -20 -37 -32 -37 -12 0 -10 24 4 38 16 16 28 15 28 -1z m-475
-16 c7 -13 -56 -71 -77 -71 -10 0 -18 5 -18 10 0 6 3 10 8 10 4 0 21 13 37 29
33 32 41 36 50 22z m85 -10 c0 -11 -5 -23 -11 -27 -15 -9 -33 12 -26 30 9 23
37 20 37 -3z m1094 3 c5 -13 -16 -66 -34 -84 -6 -6 -29 -46 -47 -81 -16 -32
-41 -54 -50 -45 -3 3 6 30 20 60 15 30 27 58 27 63 0 4 10 29 23 55 22 48 49
62 61 32z m516 12 c0 -2 3 -11 6 -20 4 -11 1 -16 -10 -16 -9 0 -16 2 -16 4 0
2 -3 11 -6 20 -4 11 -1 16 10 16 9 0 16 -2 16 -4z m-915 -23 c10 -13 10 -21 1
-35 -17 -28 -26 -22 -26 17 0 39 7 43 25 18z m-725 -60 c13 -27 26 -52 28 -57
6 -11 -41 0 -90 22 -44 19 -46 24 -15 57 33 36 51 31 77 -22z m640 22 c0 -25
-14 -34 -24 -16 -8 12 3 41 15 41 5 0 9 -11 9 -25z m966 11 c6 -17 -24 -86
-37 -86 -5 0 -9 8 -9 19 0 10 -3 33 -6 50 -6 28 -4 31 20 31 15 0 29 -6 32
-14z m84 4 c0 -5 -7 -10 -15 -10 -8 0 -15 5 -15 10 0 6 7 10 15 10 8 0 15 -4
15 -10z m-887 -31 c3 -12 10 -18 15 -15 20 12 115 16 128 5 7 -6 23 -10 36 -9
38 3 39 2 18 -35 -11 -20 -20 -42 -20 -50 0 -8 -4 -15 -10 -15 -5 0 -10 -8
-10 -18 0 -15 -12 -21 -52 -30 -120 -25 -438 -26 -438 -2 0 5 6 15 13 22 7 7
24 29 37 48 13 19 34 46 46 59 l22 23 18 -31 c15 -26 24 -31 56 -31 21 0 38 5
38 10 0 6 -8 10 -19 10 -27 0 -47 28 -35 48 17 27 34 26 34 -2 0 -14 5 -26 10
-26 6 0 10 4 10 10 0 10 65 47 86 49 7 1 14 -8 17 -20z m902 -9 c3 -5 1 -10
-4 -10 -6 0 -11 5 -11 10 0 6 2 10 4 10 3 0 8 -4 11 -10z m-1875 -14 c0 -2 -3
-11 -6 -20 -9 -23 -24 -20 -24 4 0 11 7 20 15 20 8 0 15 -2 15 -4z m1710 -36
c0 -16 -4 -30 -10 -30 -5 0 -10 14 -10 30 0 17 5 30 10 30 6 0 10 -13 10 -30z
m180 0 c0 -11 -4 -20 -10 -20 -5 0 -10 9 -10 20 0 11 5 20 10 20 6 0 10 -9 10
-20z m-1838 -132 c-9 -9 -12 -7 -12 12 0 19 3 21 12 12 9 -9 9 -15 0 -24z
m1878 -18 c0 -10 -4 -22 -10 -25 -6 -4 -10 7 -10 25 0 18 4 29 10 25 6 -3 10
-15 10 -25z m-790 0 c0 -5 -11 -10 -25 -10 -14 0 -25 5 -25 10 0 6 11 10 25
10 14 0 25 -4 25 -10z m758 -43 c6 -6 13 -48 16 -92 13 -180 18 -225 27 -225
5 0 9 13 9 29 0 17 5 33 10 36 13 8 13 -22 0 -99 -5 -34 -12 -173 -14 -311 -5
-250 -15 -366 -30 -333 -7 16 -4 202 10 507 4 94 2 131 -5 127 -7 -5 -11 -51
-11 -125 0 -69 -4 -121 -11 -128 -5 -5 -11 -24 -11 -41 -1 -17 -7 -33 -15 -36
-8 -3 -11 -11 -7 -17 7 -12 -8 -70 -36 -134 -9 -22 -23 -55 -31 -72 -8 -18
-17 -33 -21 -33 -5 0 -8 -4 -8 -10 0 -5 9 -10 20 -10 24 0 26 -13 5 -30 -18
-15 -51 -8 -47 10 2 7 3 49 4 93 0 45 5 89 12 99 9 16 8 21 -7 29 -9 6 -15 14
-12 18 2 5 5 62 6 127 0 84 5 123 14 134 19 22 24 96 6 92 -28 -6 -4 156 29
188 5 5 17 31 44 90 6 14 15 28 21 32 5 4 6 11 1 15 -4 4 -15 -1 -24 -12 -10
-11 -29 -26 -44 -34 -16 -8 -28 -18 -28 -23 0 -4 -4 -8 -10 -8 -25 0 -5 36 53
95 34 35 65 65 68 65 4 0 11 -6 17 -13z m-2086 -119 c3 -48 0 -83 -9 -103 -9
-20 -13 -62 -12 -122 1 -51 -3 -98 -8 -105 -14 -19 -53 -118 -53 -135 0 -8 -9
-28 -21 -44 -11 -16 -17 -34 -14 -40 6 -9 -69 -89 -83 -89 -2 0 -2 10 1 22 4
14 0 26 -10 33 -15 11 -14 15 6 44 12 17 29 31 37 31 19 0 18 19 -1 26 -8 4
-12 11 -8 18 4 6 10 76 13 155 l5 144 30 17 c21 12 30 24 30 43 1 15 8 32 17
39 17 14 34 58 23 58 -4 0 -20 -9 -37 -21 -45 -32 -48 -12 -3 24 21 18 48 42
60 54 11 12 23 22 27 22 3 1 8 -32 10 -71z m58 62 c0 -5 -4 -10 -10 -10 -5 0
-10 -22 -10 -50 0 -27 -4 -50 -10 -50 -14 0 -12 94 2 108 15 15 28 16 28 2z
m2080 -60 c0 -27 -4 -50 -10 -50 -11 0 -14 83 -3 93 12 12 13 8 13 -43z
m-2052 28 c7 -7 12 -21 12 -32 0 -12 14 -45 30 -75 17 -30 30 -61 30 -70 0 -9
9 -23 20 -31 11 -8 20 -22 20 -32 0 -22 -2 -22 -45 2 -28 16 -35 17 -35 5 0
-8 14 -22 30 -30 17 -9 35 -27 40 -41 13 -33 13 -74 0 -74 -14 0 -12 -56 2
-80 10 -15 10 -26 0 -53 -8 -21 -12 -96 -12 -203 -1 -131 -4 -173 -15 -188
-12 -16 -17 -17 -29 -7 -9 7 -15 20 -14 29 3 39 -3 72 -12 72 -5 0 -10 -10
-10 -22 0 -45 -30 6 -37 63 -3 30 -14 73 -25 97 -15 37 -18 71 -18 207 0 90 4
166 8 169 5 3 12 65 15 138 7 163 14 187 45 156z m88 -56 c-4 -3 -11 0 -16 8
-15 24 -11 33 6 15 9 -9 13 -19 10 -23z m684 18 c0 -11 -4 -20 -10 -20 -5 0
-10 9 -10 20 0 11 5 20 10 20 6 0 10 -9 10 -20z m540 16 c0 -3 -4 -8 -10 -11
-5 -3 -10 -1 -10 4 0 6 5 11 10 11 6 0 10 -2 10 -4z m0 -56 c0 -11 -4 -20 -10
-20 -5 0 -10 9 -10 20 0 11 5 20 10 20 6 0 10 -9 10 -20z m-725 -82 c-13 -43
-24 -173 -14 -176 5 -2 9 -26 9 -53 0 -34 -4 -47 -12 -44 -10 4 -13 -24 -14
-120 0 -81 -5 -130 -12 -137 -9 -9 -12 18 -12 112 0 146 -16 153 -23 10 -5
-108 -13 -152 -32 -195 -18 -38 -93 -120 -102 -111 -4 3 -1 12 5 18 7 7 12 29
12 50 0 24 6 40 16 46 11 6 18 28 21 68 2 32 8 77 13 99 13 53 12 95 0 95 -5
0 -10 -20 -10 -45 0 -30 -6 -52 -18 -65 -17 -19 -18 -17 -19 38 -2 52 1 60 33
96 39 43 40 49 19 70 -13 12 -13 19 -3 35 7 11 8 24 4 28 -5 4 -11 2 -13 -4
-5 -15 -33 -17 -33 -3 0 6 5 10 10 10 13 0 48 34 78 78 28 39 42 41 42 6 0
-14 4 -23 10 -19 6 3 10 35 10 71 0 59 2 64 21 64 18 0 20 -4 14 -22z m-655
-59 c0 -37 -4 -58 -10 -54 -5 3 -10 31 -10 61 0 30 5 54 10 54 6 0 10 -27 10
-61z m712 29 c19 -9 27 -22 30 -45 4 -36 -3 -41 -22 -18 -7 8 -16 15 -21 15
-16 0 -9 -19 16 -44 13 -14 38 -46 55 -72 l30 -48 0 -218 c0 -120 -2 -218 -5
-218 -9 0 -55 48 -55 58 0 5 -9 17 -20 27 -18 16 -20 31 -20 161 0 84 -4 145
-10 149 -5 3 -10 35 -10 70 0 35 -4 67 -10 70 -17 11 -9 125 9 125 4 0 19 -6
33 -12z m798 -40 c37 -41 43 -93 6 -55 -17 17 -56 74 -56 81 0 15 23 3 50 -26z
m-123 -135 c-3 -10 -5 -4 -5 12 0 17 2 24 5 18 2 -7 2 -21 0 -30z m-1407 -148
c0 -63 -4 -115 -9 -115 -10 0 -15 205 -6 221 13 20 15 5 15 -106z m525 76 c-3
-6 -11 -11 -17 -11 -6 0 -6 6 2 15 14 17 26 13 15 -4z m173 -233 c-3 -210 -5
-233 -20 -236 -14 -3 -16 1 -8 27 6 20 5 33 -2 37 -11 7 -3 378 8 396 20 32
24 -13 22 -224z m1505 150 c37 -75 76 -120 99 -112 14 4 18 0 18 -22 0 -22
-18 -101 -26 -112 -1 -2 -17 4 -34 13 -27 14 -34 14 -41 3 -6 -10 -11 -9 -23
7 -15 20 -15 19 -16 -5 0 -14 9 -32 19 -40 11 -7 18 -17 15 -21 -7 -12 -54 40
-54 59 0 10 5 23 11 29 8 8 8 17 0 31 -13 25 -15 222 -2 222 5 0 20 -24 34
-52z m-2243 -34 c0 -8 -5 -12 -10 -9 -6 4 -8 11 -5 16 9 14 15 11 15 -7z m-10
-54 c0 -5 -7 -10 -15 -10 -8 0 -15 5 -15 10 0 6 7 10 15 10 8 0 15 -4 15 -10z
m20 -55 c0 -27 -34 -53 -46 -34 -9 14 16 59 33 59 7 0 13 -11 13 -25z m1430
-11 c0 -14 -4 -22 -10 -19 -5 3 -10 17 -10 31 0 14 4 22 10 19 6 -3 10 -17 10
-31z m-1380 -13 c0 -5 3 -23 6 -40 5 -24 3 -31 -10 -31 -12 0 -16 10 -16 40 0
22 5 40 10 40 6 0 10 -4 10 -9z m615 -41 c-3 -5 -10 -10 -16 -10 -5 0 -9 5 -9
10 0 6 7 10 16 10 8 0 12 -4 9 -10z m767 -72 c1 -46 1 -92 1 -102 0 -17 1 -17
12 -2 18 23 25 20 25 -13 0 -35 -25 -86 -42 -86 -8 0 -13 -14 -13 -40 0 -24 5
-40 12 -40 22 0 25 -13 4 -25 -12 -6 -21 -21 -21 -33 0 -12 -5 -29 -11 -37 -7
-11 -8 22 -4 110 4 69 8 159 9 200 4 132 6 150 16 150 6 0 11 -35 12 -82z
m674 45 c-10 -10 -19 5 -10 18 6 11 8 11 12 0 2 -7 1 -15 -2 -18z m-2106 -3
c0 -11 -7 -20 -15 -20 -8 0 -15 -4 -15 -10 0 -5 -4 -10 -9 -10 -5 0 -3 14 5
30 18 34 34 39 34 10z m667 -56 c10 -84 9 -99 -7 -99 -10 0 -15 11 -16 35 0
19 -2 40 -3 45 -4 14 0 58 6 68 8 14 14 2 20 -49z m1603 46 c0 -5 7 -10 16
-10 15 0 44 -23 44 -34 0 -14 -32 -4 -55 16 -26 23 -32 38 -15 38 6 0 10 -4
10 -10z m-2210 -39 c7 -13 7 -22 0 -26 -15 -9 -30 4 -30 26 0 25 16 25 30 0z
m-210 -21 c0 -11 -4 -20 -10 -20 -5 0 -10 9 -10 20 0 11 5 20 10 20 6 0 10 -9
10 -20z m959 -24 c43 -44 43 -44 36 -97 -3 -30 -9 -62 -11 -71 -8 -27 -39 -21
-53 10 -8 15 -17 35 -22 44 -11 22 -12 158 -1 158 4 0 27 -20 51 -44z m1509 2
c16 -16 15 -28 -3 -28 -8 0 -19 9 -25 20 -8 15 -8 20 3 20 7 0 18 -5 25 -12z
m-2473 -69 c-4 -5 -13 -9 -22 -9 -13 0 -13 3 -3 15 13 15 35 11 25 -6z m265
11 c0 -5 -4 -10 -10 -10 -5 0 -10 5 -10 10 0 6 5 10 10 10 6 0 10 -4 10 -10z
m1260 -20 c0 -5 -4 -10 -10 -10 -5 0 -10 5 -10 10 0 6 5 10 10 10 6 0 10 -4
10 -10z m-702 -47 c-3 -42 -21 -51 -26 -15 -4 29 4 52 18 52 7 0 10 -15 8 -37z
m1326 15 c-8 -29 -10 -31 -23 -23 -8 4 -8 12 -1 26 15 27 33 24 24 -3z m-1384
-14 c0 -8 -4 -14 -10 -14 -5 0 -10 9 -10 21 0 11 5 17 10 14 6 -3 10 -13 10
-21z m100 -20 c0 -13 -4 -24 -9 -24 -10 0 -21 47 -13 54 10 11 22 -6 22 -30z
m1440 -6 c0 -7 -5 -20 -10 -28 -8 -12 -10 -9 -10 13 0 15 5 27 10 27 6 0 10
-6 10 -12z m-1540 -32 c0 -8 -4 -17 -9 -21 -12 -7 -24 12 -16 25 9 15 25 12
25 -4z m980 -27 c0 -5 -4 -9 -10 -9 -5 0 -10 7 -10 16 0 8 5 12 10 9 6 -3 10
-10 10 -16z m-770 -19 c0 -5 -4 -10 -10 -10 -5 0 -10 5 -10 10 0 6 5 10 10 10
6 0 10 -4 10 -10z m454 -15 c-4 -8 -11 -15 -16 -15 -6 0 -5 6 2 15 7 8 14 15
16 15 2 0 1 -7 -2 -15z m226 -15 c0 -5 -4 -10 -10 -10 -5 0 -10 5 -10 10 0 6
5 10 10 10 6 0 10 -4 10 -10z m-10 -66 c0 -8 -4 -12 -10 -9 -5 3 -10 10 -10
16 0 5 5 9 10 9 6 0 10 -7 10 -16z m60 -68 c0 -8 -4 -18 -10 -21 -5 -3 -10 3
-10 14 0 12 5 21 10 21 6 0 10 -6 10 -14z m-850 -401 c-14 -17 -40 -20 -40 -6
0 8 18 16 44 20 5 0 3 -6 -4 -14z"/>
<path d="M3450 3120 c0 -5 -7 -10 -15 -10 -25 0 -17 -14 15 -28 26 -12 32 -11
46 3 21 21 12 30 -16 15 -20 -11 -21 -10 -15 9 4 12 2 21 -4 21 -6 0 -11 -4
-11 -10z"/>
<path d="M3750 3101 c0 -10 24 -21 47 -21 13 0 13 3 3 15 -13 16 -50 21 -50 6z"/>
<path d="M3070 3200 c0 -5 9 -10 21 -10 11 0 17 5 14 10 -3 6 -13 10 -21 10
-8 0 -14 -4 -14 -10z"/>
<path d="M1210 2570 c0 -23 -29 -27 -48 -8 -9 9 -12 8 -12 -4 0 -23 14 -30 61
-32 44 -1 44 -1 27 37 -15 32 -28 35 -28 7z"/>
<path d="M1270 2550 c0 -22 3 -40 8 -41 34 -5 92 -4 92 1 0 11 -46 50 -58 50
-7 0 -15 7 -18 15 -11 28 -24 15 -24 -25z"/>
<path d="M1675 2440 c-11 -18 3 -27 35 -22 25 3 28 7 19 18 -13 16 -45 19 -54
4z"/>
<path d="M1246 2408 c-20 -11 -21 -38 -2 -38 27 0 68 20 64 32 -5 14 -41 18
-62 6z"/>
<path d="M1340 2360 c0 -5 7 -10 15 -10 8 0 15 5 15 10 0 6 -7 10 -15 10 -8 0
-15 -4 -15 -10z"/>
<path d="M2938 2518 c-23 -23 -23 -28 3 -28 38 0 89 -36 89 -63 0 -18 27 -30
35 -16 4 5 -1 16 -9 25 -22 21 -20 34 4 34 11 0 20 5 20 10 0 6 -13 10 -28 10
-36 0 -44 8 -31 31 11 22 6 23 -22 8 -12 -6 -25 -7 -32 -1 -8 6 -18 2 -29 -10z"/>
<path d="M3112 2358 c6 -17 36 -34 44 -25 4 4 -1 14 -12 22 -23 18 -37 19 -32
3z"/>
<path d="M2670 2362 c0 -4 9 -13 20 -20 13 -8 20 -23 20 -41 0 -42 17 -48 23
-8 5 37 -18 76 -45 77 -10 0 -18 -3 -18 -8z"/>
<path d="M2313 2455 c-3 -9 -3 -19 1 -22 7 -7 36 16 36 28 0 15 -30 10 -37 -6z"/>
<path d="M2563 2113 c-20 -8 -15 -23 7 -23 11 0 20 7 20 15 0 15 -6 17 -27 8z"/>
<path d="M2430 2080 c0 -5 18 -10 40 -10 22 0 40 5 40 10 0 6 -18 10 -40 10
-22 0 -40 -4 -40 -10z"/>
<path d="M3293 1190 c-3 -11 -9 -20 -14 -20 -5 0 -9 -9 -9 -20 0 -31 14 -24
33 15 20 42 20 45 6 45 -6 0 -13 -9 -16 -20z"/>
<path d="M1860 1430 c-8 -5 -11 -12 -8 -16 10 -9 38 3 38 16 0 12 -10 13 -30
0z"/>
<path d="M3370 5502 c0 -4 9 -13 20 -20 27 -16 25 -26 -10 -77 -30 -43 -39
-75 -21 -75 12 0 51 54 51 69 0 6 5 11 10 11 6 0 10 6 10 14 0 21 20 30 33 17
13 -13 37 -15 37 -2 0 4 -23 22 -51 40 -49 30 -79 39 -79 23z"/>
<path d="M1212 5483 c-11 -10 -34 -26 -51 -35 -35 -19 -41 -38 -11 -38 11 0
20 5 20 10 0 24 22 6 56 -45 20 -30 43 -55 50 -55 21 0 17 17 -14 63 -44 65
-44 65 -23 84 11 9 18 20 15 25 -8 12 -19 10 -42 -9z"/>
<path d="M3486 5353 c-51 -74 -52 -70 21 -121 37 -26 43 -27 43 -8 0 8 -13 23
-30 33 -35 20 -42 63 -11 63 10 0 24 -7 31 -15 13 -16 50 -21 50 -7 0 4 -13
16 -30 25 -16 10 -30 25 -30 33 0 21 44 17 65 -6 10 -11 22 -20 27 -20 4 0 8
9 8 20 0 11 -6 20 -12 20 -7 0 -26 11 -42 25 -16 14 -32 25 -36 25 -4 0 -28
-30 -54 -67z"/>
<path d="M1090 5388 c0 -13 12 -36 26 -53 14 -16 33 -42 42 -57 19 -33 32 -36
32 -8 0 17 -84 140 -96 140 -2 0 -4 -10 -4 -22z"/>
<path d="M1000 5333 c-8 -3 -27 -17 -42 -31 l-27 -25 32 -40 c18 -23 42 -52
54 -66 l21 -24 31 22 c17 12 36 32 42 43 14 26 4 81 -19 102 -20 18 -69 28
-92 19z m68 -48 c28 -32 28 -57 1 -81 -21 -19 -21 -19 -55 21 -37 44 -40 55
-22 73 20 20 53 14 76 -13z"/>
<path d="M3666 5281 c-7 -43 -35 -71 -73 -71 -13 0 -23 -6 -23 -14 0 -21 20
-30 33 -17 6 6 19 11 29 11 14 0 18 -8 18 -40 0 -22 5 -40 10 -40 6 0 10 8 10
19 0 46 21 78 60 91 50 17 52 33 3 28 -37 -3 -38 -2 -41 35 -4 48 -18 47 -26
-2z"/>
<path d="M840 5195 c-10 -12 -7 -27 19 -80 17 -36 31 -70 31 -75 0 -6 7 -10
16 -10 11 0 14 6 9 21 -11 33 29 70 68 62 52 -11 26 19 -53 60 -40 20 -74 37
-75 37 -2 0 -8 -7 -15 -15z m65 -41 c23 -15 25 -44 3 -44 -13 0 -37 31 -38 48
0 16 6 15 35 -4z"/>
<path d="M3790 5144 c-25 -13 -57 -28 -72 -33 -39 -14 -38 -45 0 -36 35 7 77
-31 62 -55 -14 -21 -12 -30 4 -30 8 0 31 34 51 75 31 62 35 78 25 90 -15 18
-15 18 -70 -11z m40 -26 c-1 -17 -25 -48 -38 -48 -9 0 -27 31 -20 34 2 1 12 6
23 13 26 16 35 16 35 1z"/>
<path d="M702 5055 c-18 -19 -32 -39 -32 -44 0 -15 105 -101 124 -101 22 0 20
17 -4 32 -24 15 -25 34 -4 55 14 15 18 15 44 0 33 -20 40 -21 40 -6 0 13 -25
39 -37 39 -5 0 -19 14 -31 30 -30 40 -61 39 -100 -5z m75 -11 c3 -9 -3 -25
-16 -37 -20 -20 -22 -20 -38 -4 -16 15 -16 18 2 37 22 24 43 26 52 4z"/>
<path d="M3902 5038 c-16 -16 -15 -39 4 -76 17 -35 12 -52 -14 -52 -23 0 -45
36 -37 61 4 13 2 19 -9 19 -26 0 -20 -57 9 -85 26 -27 46 -31 76 -15 23 13 24
38 4 76 -18 35 -19 50 -3 60 17 11 47 -32 41 -57 -5 -17 -2 -20 13 -17 27 5
29 33 4 68 -23 32 -65 41 -88 18z"/>
<path d="M613 4946 c-36 -41 -56 -76 -49 -84 4 -4 13 1 20 11 14 18 42 23 48
9 7 -18 97 -72 103 -62 9 15 -9 34 -61 67 -25 16 -42 33 -39 41 3 6 8 19 11
27 9 23 -10 18 -33 -9z"/>
<path d="M467 4732 c-52 -57 -10 -143 69 -146 42 -1 57 9 82 52 17 31 16 37
-19 77 -26 30 -37 35 -73 35 -29 0 -48 -6 -59 -18z m91 -22 c35 -22 43 -60 18
-86 -21 -20 -47 -17 -78 10 -32 27 -35 51 -11 78 20 23 30 23 71 -2z"/>
<path d="M410 4573 c-33 -12 -60 -47 -60 -79 0 -69 110 -112 158 -61 30 32 29
87 0 114 -24 21 -73 34 -98 26z m74 -49 c31 -32 32 -45 6 -69 -22 -20 -63 -14
-92 12 -22 20 -22 32 -2 61 20 29 55 28 88 -4z"/>
<path d="M322 4392 c-7 -5 -20 -27 -27 -48 -13 -36 -13 -40 7 -56 11 -10 31
-18 44 -18 12 0 26 -4 29 -10 3 -5 22 -10 41 -10 19 0 34 5 34 10 0 6 -6 10
-12 10 -7 0 -22 7 -32 15 -16 12 -17 18 -8 27 16 16 15 53 -1 66 -19 16 -60
23 -75 14z m46 -35 c12 -15 5 -57 -10 -57 -5 0 -18 4 -28 10 -15 8 -16 13 -7
35 13 28 29 32 45 12z"/>
<path d="M303 4197 c-73 -15 -71 -36 9 -87 33 -22 70 -40 81 -40 20 0 20 1 -3
25 -21 23 -22 27 -10 51 8 14 22 30 32 35 52 28 -6 36 -109 16z m47 -47 c0
-23 -17 -25 -42 -6 -26 19 -22 26 12 26 23 0 30 -4 30 -20z"/>
<path d="M216 4041 c-6 -8 31 -63 46 -69 5 -2 8 -10 8 -19 0 -11 -7 -13 -30
-8 -24 5 -30 3 -30 -10 0 -19 8 -22 93 -29 55 -5 67 -4 67 8 0 9 -11 16 -27
18 -43 5 -39 31 7 50 22 10 40 25 40 33 0 20 -12 19 -55 -5 -20 -11 -40 -20
-46 -20 -13 0 -33 20 -42 43 -7 18 -22 23 -31 8z"/>
<path d="M212 3847 c-28 -30 -29 -78 -1 -103 28 -25 118 -27 142 -2 24 23 22
81 -3 103 -34 31 -39 7 -8 -37 30 -41 -68 -80 -106 -42 -21 20 -20 43 1 66 26
29 2 44 -25 15z"/>
<path d="M207 3682 c-9 -2 -17 -10 -17 -18 0 -12 16 -14 88 -12 69 2 87 6 87
18 0 12 -14 15 -70 15 -39 0 -79 -1 -88 -3z"/>
<path d="M338 3608 c-8 -7 -26 -24 -40 -37 l-27 -24 -31 27 c-17 14 -36 26
-41 26 -20 0 -7 -26 26 -50 38 -27 40 -43 7 -48 -12 -2 -22 -10 -22 -19 0 -14
10 -15 69 -9 38 3 76 9 85 12 28 11 17 24 -19 24 -45 0 -46 22 -5 57 29 24 40
53 21 53 -5 0 -16 -6 -23 -12z"/>
<path d="M3450 2004 c0 -13 44 -45 69 -50 51 -11 111 -47 111 -66 0 -10 -4
-18 -10 -18 -5 0 -10 4 -10 8 0 15 -52 34 -63 23 -12 -12 0 -31 20 -31 18 0
73 -38 73 -51 0 -15 -22 -10 -84 21 -33 16 -62 27 -65 24 -8 -8 47 -53 84 -69
58 -26 76 -49 82 -109 3 -31 10 -56 16 -56 6 0 8 26 3 70 -4 45 -2 70 4 70 17
0 11 26 -10 45 -11 10 -20 25 -20 32 0 8 9 17 20 20 27 7 25 14 -12 49 -38 35
-78 54 -114 54 -14 0 -34 9 -46 20 -21 19 -48 27 -48 14z"/>
<path d="M3590 1723 c1 -5 7 -19 15 -33 12 -22 14 -23 20 -8 4 10 1 24 -8 33
-17 16 -27 19 -27 8z"/>
<path d="M3570 1662 c0 -4 5 -13 11 -19 16 -16 -3 -278 -23 -320 -8 -17 -6
-26 11 -44 11 -13 21 -29 21 -36 0 -15 16 -17 25 -3 3 6 17 10 29 10 31 0 34
13 35 165 2 137 -5 195 -23 195 -6 0 -19 8 -28 18 -36 37 -58 51 -58 34z m71
-72 c17 -10 19 -22 19 -153 0 -161 -5 -178 -45 -157 -26 14 -26 15 -21 100 8
133 17 220 23 220 2 0 13 -5 24 -10z"/>
</g>
</svg>
