<svg version="1.0" xmlns="http://www.w3.org/2000/svg"
 width="234.000000px" height="218.000000px" viewBox="0 0 234.000000 218.000000"
 preserveAspectRatio="xMidYMid meet">

<g transform="translate(0.000000,218.000000) scale(0.100000,-0.100000)"
fill="#000000" stroke="none">
<path d="M1107 2044 c-1 -1 -60 -4 -132 -7 -163 -7 -357 -37 -500 -75 l-30 -8
-3 -176 -2 -176 42 10 c24 6 50 11 58 12 8 0 17 4 20 8 3 4 35 12 70 17 36 6
76 12 90 15 32 6 155 18 200 20 31 1 35 -2 38 -26 2 -19 8 -25 18 -21 11 4 14
-2 12 -28 -3 -31 -1 -34 21 -31 27 3 37 9 29 18 -4 3 -16 0 -28 -6 -21 -11
-22 -10 -16 18 5 20 2 33 -9 42 -19 16 -20 34 0 26 8 -3 15 -1 15 4 0 6 -6 10
-14 10 -8 0 -18 5 -22 11 -5 8 1 10 20 7 14 -3 26 -1 26 3 0 5 7 9 15 9 8 0
15 -5 15 -12 0 -9 3 -9 12 0 7 7 26 12 43 12 17 0 36 5 42 11 8 8 10 1 6 -29
-3 -23 -2 -49 1 -59 6 -15 10 -12 22 15 9 23 19 32 31 30 27 -5 27 -41 0 -69
-13 -14 -22 -30 -20 -36 2 -6 -16 -32 -40 -59 -24 -27 -52 -65 -63 -84 -14
-27 -19 -31 -22 -17 -2 10 1 24 8 31 14 18 -16 50 -39 41 -9 -4 -26 -9 -39
-11 -19 -4 -23 -1 -20 13 3 13 12 17 31 16 15 -1 25 2 22 8 -4 5 -15 9 -26 9
-10 0 -19 5 -19 11 0 7 7 8 18 4 69 -29 73 -30 82 -15 6 10 4 20 -7 32 -14 15
-18 16 -43 3 -27 -14 -30 -13 -50 13 -17 21 -19 22 -10 4 13 -27 6 -42 -21
-42 -55 0 -140 -71 -179 -150 -12 -25 -28 -52 -35 -60 -14 -16 -25 -84 -28
-170 -1 -30 -6 -61 -10 -68 -5 -7 -5 -21 -2 -32 5 -16 16 -20 48 -21 23 -1 46
-1 51 0 21 4 46 -12 46 -29 0 -10 14 -30 31 -44 l31 -26 -29 0 c-42 0 -57 -19
-35 -43 17 -19 16 -19 -15 -13 -19 4 -41 3 -53 -4 -22 -12 -22 -20 -5 -76 5
-15 0 -28 -15 -42 -24 -23 -40 -102 -21 -102 17 0 13 -52 -5 -78 -14 -21 -18
-22 -33 -8 -9 8 -33 16 -54 18 -29 2 -43 -4 -64 -25 l-28 -27 20 -36 c20 -37
35 -49 100 -75 43 -18 39 -21 -40 -35 -22 -4 -49 -11 -60 -17 -11 -6 -41 -9
-67 -8 l-48 2 0 -125 0 -126 110 1 c61 1 113 5 116 10 3 5 10 6 16 3 7 -4 8
-2 4 4 -11 17 9 15 24 -3 15 -18 71 -20 88 -3 9 9 12 9 12 0 0 -19 465 -15
484 4 12 11 16 11 26 -1 16 -20 475 -22 464 -3 -6 10 -4 11 7 0 7 -6 28 -12
45 -12 43 0 72 35 67 81 -2 19 -3 55 -3 80 0 57 -17 74 -87 83 -28 4 -68 13
-88 22 -20 8 -40 12 -45 9 -12 -7 -41 5 -35 15 3 5 1 11 -5 15 -5 3 -10 13
-10 21 0 8 -10 28 -22 45 -17 23 -23 45 -24 97 -1 53 -8 80 -32 128 -38 75
-47 110 -34 127 6 7 10 23 9 35 -1 20 -19 28 -50 23 -17 -3 -29 46 -17 68 9
18 9 26 -2 39 -8 10 -9 13 -1 9 6 -4 14 -3 18 3 3 5 24 10 45 10 72 0 92 81
21 88 -17 2 -31 6 -31 9 0 3 23 30 50 59 l50 53 0 70 c0 67 -2 72 -30 92 -16
13 -41 39 -55 59 -13 19 -48 50 -77 67 -43 26 -65 32 -118 34 -36 1 -80 -1
-97 -5 -26 -6 -33 -4 -33 8 0 20 21 66 31 66 4 0 9 10 11 22 2 13 15 29 31 36
25 12 27 17 22 57 -4 38 -2 43 18 48 12 2 30 8 39 12 15 6 17 -1 20 -56 3 -61
4 -63 33 -67 17 -3 50 -5 75 -6 l45 -1 -3 44 c-3 33 -1 42 10 39 7 -3 25 1 39
8 l26 13 -8 -42 c-14 -75 -17 -72 84 -91 50 -10 118 -26 150 -36 l57 -19 -5
32 c-3 18 -10 55 -15 82 -5 28 -12 66 -14 85 -4 31 -28 161 -31 167 -6 11
-189 45 -325 62 -129 16 -373 32 -383 25z m3 -119 c0 -65 -3 -85 -14 -85 -7 0
-28 -3 -45 -6 l-31 -6 0 91 0 91 45 0 45 0 0 -85z m227 63 c31 -22 33 -27 33
-80 0 -54 -2 -59 -30 -73 -16 -8 -40 -15 -55 -15 -23 0 -25 -3 -26 -47 0 -39
-2 -44 -9 -25 -5 12 -25 38 -45 57 -35 35 -35 37 -35 120 l0 85 67 0 c53 0 74
-5 100 -22z m-377 -90 c0 -111 -18 -172 -52 -181 -15 -4 -23 4 -39 40 -10 24
-19 52 -19 60 0 9 -3 13 -7 10 -4 -4 -6 -31 -4 -61 2 -48 0 -54 -21 -60 -13
-3 -33 -6 -45 -6 -23 0 -23 1 -23 139 0 117 2 140 16 145 39 15 52 6 77 -56
l26 -63 1 61 c0 33 3 64 7 67 3 4 24 7 45 7 l38 0 0 -102z m545 87 c22 -4 55
-18 73 -31 29 -23 32 -30 32 -78 0 -49 -2 -53 -33 -68 -18 -9 -45 -14 -60 -11
-27 5 -27 4 -27 -47 0 -43 -3 -51 -16 -46 -9 3 -29 6 -45 6 l-29 0 0 145 0
146 33 -5 c17 -3 50 -8 72 -11z m-833 -84 l-36 -68 42 -68 c24 -37 41 -69 39
-71 -2 -2 -23 -7 -48 -10 l-44 -6 -30 54 -30 53 -3 -61 -3 -61 -44 -10 -45
-10 0 142 0 143 31 6 c56 11 58 10 61 -51 l3 -58 24 63 c25 66 41 80 92 81
l26 1 -35 -69z m1071 43 c21 -4 41 -12 43 -18 7 -19 53 -281 49 -284 -2 -2
-21 2 -44 8 -33 9 -41 15 -41 34 0 22 -16 36 -41 36 -5 0 -9 -11 -9 -25 0 -24
-2 -26 -37 -19 -21 3 -42 10 -46 14 -5 4 1 57 13 116 33 165 30 156 54 150 11
-3 38 -9 59 -12z m-1023 -106 l0 -83 -20 33 c-24 39 -25 65 -5 82 8 7 15 21
15 31 0 11 2 19 5 19 3 0 5 -37 5 -82z m340 -288 c0 -5 -9 -10 -20 -10 -11 0
-20 5 -20 10 0 6 9 10 20 10 11 0 20 -4 20 -10z m354 -255 c15 -23 15 -29 1
-80 -12 -41 -24 -59 -46 -72 -16 -10 -29 -23 -29 -30 0 -7 -7 -13 -16 -13 -13
0 -15 8 -11 43 6 53 57 177 73 177 6 0 19 -11 28 -25z m181 -15 c7 -21 -33
-86 -79 -129 -18 -17 -24 -31 -20 -45 3 -12 1 -33 -5 -48 -8 -21 -16 -26 -45
-25 -31 1 -33 3 -24 21 9 17 6 16 -19 -5 -17 -13 -29 -25 -28 -27 3 -3 31 -10
50 -11 5 -1 2 -8 -7 -17 -15 -15 -18 -14 -37 5 -12 12 -25 21 -31 21 -5 0 -7
7 -4 15 4 8 10 13 14 10 5 -3 15 2 24 11 12 12 14 20 5 35 -6 12 -17 18 -25
15 -27 -10 -14 14 16 29 20 11 32 27 40 54 14 52 37 78 85 95 57 21 83 20 90
-4z m-786 -58 c36 -10 67 -23 69 -31 3 -10 0 -12 -14 -7 -17 6 -17 5 2 -16 24
-28 58 -57 62 -53 2 1 -8 15 -22 30 -14 15 -23 32 -19 38 3 5 20 -6 37 -24 32
-35 44 -69 23 -69 -8 0 -8 -3 1 -12 21 -21 13 -45 -23 -77 -20 -17 -40 -31
-45 -31 -15 0 -42 48 -35 60 4 7 -2 14 -14 17 -12 3 -21 10 -21 15 0 6 8 7 18
4 15 -5 15 -4 2 6 -8 7 -23 25 -33 40 -9 15 -23 25 -30 22 -8 -3 -19 7 -27 23
l-14 28 -4 -24 c-2 -13 2 -28 10 -33 9 -7 8 -8 -7 -6 -25 4 -32 48 -15 89 14
33 13 33 99 11z m179 -161 c2 -13 -1 -28 -6 -33 -6 -6 -11 3 -14 26 -4 40 15
46 20 7z m562 -11 c0 -5 -9 -6 -20 -3 -11 3 -20 9 -20 13 0 5 9 6 20 3 11 -3
20 -9 20 -13z m-453 -22 c-3 -7 -5 -2 -5 12 0 14 2 19 5 13 2 -7 2 -19 0 -25z
m268 -57 c-3 -6 -11 -11 -17 -11 -6 0 -6 6 2 15 14 17 26 13 15 -4z m59 -6
c-9 -14 -18 -25 -21 -25 -5 0 5 18 20 38 17 22 18 13 1 -13z m-159 -26 c-10
-15 -25 -10 -19 6 4 8 10 12 15 9 5 -3 7 -10 4 -15z m-390 -27 c-3 -3 -11 0
-18 7 -9 10 -8 11 6 5 10 -3 15 -9 12 -12z m607 -29 c-6 -2 -10 -9 -7 -14 4
-5 -1 -6 -10 -2 -13 5 -14 7 -3 14 7 5 18 8 23 8 6 0 4 -3 -3 -6z m-706 -32
c8 7 14 7 14 1 0 -12 -26 -23 -34 -15 -3 4 -5 13 -5 22 1 12 2 12 6 -2 4 -14
8 -16 19 -6z m661 13 c-3 -3 -12 -4 -19 -1 -8 3 -5 6 6 6 11 1 17 -2 13 -5z
m-164 -11 c-7 -2 -19 -2 -25 0 -7 3 -2 5 12 5 14 0 19 -2 13 -5z m-173 -27 c0
-2 -7 -7 -16 -10 -8 -3 -12 -2 -9 4 6 10 25 14 25 6z m-65 -35 c-1 -10 -9 -29
-18 -42 l-17 -24 9 25 c5 14 12 33 15 43 7 23 13 22 11 -2z m247 -86 c10 7 11
5 0 -6 -10 -11 -19 -6 -55 31 l-42 45 42 -39 c26 -25 46 -36 55 -31z m-212 51
c0 -2 -7 -7 -16 -10 -8 -3 -12 -2 -9 4 6 10 25 14 25 6z m298 -37 c-3 -8 -7
-3 -11 10 -4 17 -3 21 5 13 5 -5 8 -16 6 -23z m-458 -223 c-11 -26 -20 -54
-20 -62 0 -9 -11 -14 -30 -14 -25 0 -30 4 -30 23 0 30 36 104 69 142 l26 30 3
-35 c2 -20 -6 -57 -18 -84z m529 30 c36 -34 38 -46 12 -70 -18 -16 -20 -14
-45 49 -28 69 -38 139 -12 80 8 -16 28 -43 45 -59z m-142 22 c-2 -13 -4 -5 -4
17 -1 22 1 32 4 23 2 -10 2 -28 0 -40z m-320 -33 c0 -8 -4 -12 -8 -9 -4 2 -15
-6 -23 -18 -9 -12 -16 -18 -16 -13 0 7 39 55 45 55 1 0 2 -7 2 -15z m-33 -121
c3 -8 2 -12 -4 -9 -6 3 -10 10 -10 16 0 14 7 11 14 -7z m146 -14 c0 -5 -5 -10
-11 -10 -5 0 -7 5 -4 10 3 6 8 10 11 10 2 0 4 -4 4 -10z m-556 -49 c10 -11 16
-34 16 -57 0 -22 2 -60 6 -86 6 -47 5 -48 -20 -48 -24 0 -26 3 -28 48 l-1 47
-6 -45 c-5 -36 -10 -45 -26 -45 -19 0 -20 8 -23 103 l-3 102 34 0 c20 0 41 -7
51 -19z m128 2 c25 -22 26 -148 1 -175 -20 -23 -52 -23 -69 -1 -17 23 -18 147
-2 173 16 24 45 26 70 3z m120 0 c25 -23 24 -63 -2 -63 -13 0 -20 7 -20 20 0
11 -4 20 -10 20 -6 0 -10 -28 -10 -65 0 -37 4 -65 10 -65 6 0 10 11 10 25 0
18 5 25 20 25 15 0 20 -7 20 -27 -1 -56 -44 -80 -82 -46 -25 22 -26 148 -1
175 20 22 41 23 65 1z m78 -19 c0 -41 15 -38 23 6 5 21 12 30 27 30 24 0 24
-3 4 -57 -15 -39 -15 -45 1 -85 9 -24 19 -49 22 -55 3 -8 -4 -13 -19 -13 -20
0 -27 8 -39 43 l-14 42 -3 -42 c-3 -35 -7 -43 -23 -43 -17 0 -19 8 -19 98 0
100 3 112 27 112 8 0 13 -13 13 -36z m172 19 c25 -23 24 -63 -2 -63 -13 0 -20
7 -20 20 0 11 -4 20 -10 20 -6 0 -10 -28 -10 -65 0 -37 4 -65 10 -65 6 0 10
11 10 25 0 18 5 25 20 25 15 0 20 -7 20 -27 -1 -56 -44 -80 -82 -46 -25 22
-26 148 -1 175 20 22 41 23 65 1z m126 -5 c16 -16 15 -60 0 -77 -10 -11 -10
-14 0 -18 7 -3 12 -23 12 -49 0 -37 -3 -44 -20 -44 -17 0 -20 7 -20 47 0 48
-13 53 -16 5 -3 -49 -4 -52 -24 -52 -19 0 -20 7 -20 100 l0 100 38 0 c21 0 43
-5 50 -12z m82 -68 c0 -44 3 -80 8 -80 4 0 6 36 4 80 l-4 80 26 0 c26 0 26 -1
26 -82 0 -88 -14 -118 -55 -118 -37 0 -45 19 -45 112 0 81 2 88 20 88 18 0 20
-7 20 -80z m170 61 c15 -29 12 -41 -10 -41 -11 0 -20 7 -20 15 0 8 -4 15 -10
15 -5 0 -10 -11 -10 -25 0 -14 5 -25 12 -25 21 0 48 -33 48 -58 0 -49 -57 -81
-88 -50 -20 20 -15 58 8 58 11 0 20 -7 20 -15 0 -8 5 -15 10 -15 6 0 10 9 10
20 0 11 -5 20 -12 20 -38 0 -65 79 -36 108 19 19 66 15 78 -7z m70 -21 c0 -22
5 -40 10 -40 6 0 10 18 10 40 0 33 3 40 20 40 19 0 20 -7 20 -100 0 -93 -1
-100 -20 -100 -17 0 -20 7 -20 40 0 22 -4 40 -10 40 -5 0 -10 -18 -10 -40 0
-33 -3 -40 -20 -40 -19 0 -20 7 -20 100 0 93 1 100 20 100 17 0 20 -7 20 -40z
m160 25 c0 -8 -7 -15 -15 -15 -8 0 -15 -9 -15 -20 0 -11 7 -20 15 -20 8 0 15
-9 15 -20 0 -11 -7 -20 -15 -20 -9 0 -15 -9 -15 -25 0 -15 6 -25 14 -25 15 0
28 -24 19 -34 -4 -3 -21 -6 -40 -6 l-33 0 0 100 0 100 35 0 c24 0 35 -5 35
-15z m108 3 c15 -15 16 -60 1 -75 -8 -8 -8 -13 0 -17 6 -4 11 -27 11 -52 0
-37 -3 -44 -20 -44 -17 0 -20 7 -20 40 0 22 -3 40 -8 40 -4 0 -6 -18 -4 -40 4
-37 2 -40 -22 -40 l-26 0 0 100 0 100 38 0 c21 0 43 -5 50 -12z m123 -4 c22
-26 19 -44 -6 -44 -14 0 -25 7 -28 18 -3 10 -5 6 -6 -10 0 -16 4 -28 11 -28
21 0 48 -33 48 -58 0 -32 -27 -62 -55 -62 -27 0 -59 34 -52 55 8 20 34 19 46
-2 9 -16 10 -16 11 5 0 13 -6 22 -14 22 -19 0 -46 38 -46 64 0 46 63 74 91 40z"/>
<path d="M1260 1915 c0 -25 5 -45 10 -45 6 0 10 20 10 45 0 25 -4 45 -10 45
-5 0 -10 -20 -10 -45z"/>
<path d="M1490 1896 c0 -35 4 -46 16 -46 12 0 14 9 12 42 -4 59 -28 63 -28 4z"/>
<path d="M1717 1867 c-13 -33 -8 -94 8 -101 17 -6 19 13 7 79 -6 30 -9 36 -15
22z"/>
<path d="M1565 1261 c-5 -11 -25 -38 -43 -60 -19 -23 -30 -41 -25 -41 16 0 84
90 81 106 -2 12 -5 11 -13 -5z"/>
<path d="M1467 1063 c-4 -3 -7 -11 -7 -17 0 -6 5 -5 12 2 6 6 9 14 7 17 -3 3
-9 2 -12 -2z"/>
<path d="M497 303 c-3 -5 -1 -17 4 -28 7 -17 8 -17 8 8 1 27 -4 34 -12 20z"/>
<path d="M620 245 c0 -37 4 -65 10 -65 6 0 10 28 10 65 0 37 -4 65 -10 65 -6
0 -10 -28 -10 -65z"/>
<path d="M1119 308 c-7 -25 -7 -48 1 -48 6 0 10 11 10 25 0 20 -7 35 -11 23z"/>
<path d="M1712 285 c0 -16 2 -22 5 -12 2 9 2 23 0 30 -3 6 -5 -1 -5 -18z"/>
<path d="M1067 1689 c-9 -5 -21 -8 -26 -4 -12 7 -24 -12 -16 -25 4 -6 16 -4
31 6 13 9 33 14 44 11 24 -6 27 8 4 17 -19 7 -15 8 -37 -5z"/>
<path d="M1063 1653 c-3 -10 -7 -20 -9 -23 -1 -3 11 -5 26 -5 26 0 27 2 14 16
-12 14 -13 18 -2 22 8 4 7 6 -5 6 -10 1 -20 -7 -24 -16z"/>
<path d="M1187 1648 c-8 -30 -1 -35 12 -9 6 11 7 22 2 25 -5 3 -11 -4 -14 -16z"/>
</g>
</svg>
