<svg version="1.0" xmlns="http://www.w3.org/2000/svg"
 width="216.000000px" height="216.000000px" viewBox="0 0 216.000000 216.000000"
 preserveAspectRatio="xMidYMid meet">

<g transform="translate(0.000000,216.000000) scale(0.100000,-0.100000)"
fill="#000000" stroke="none">
<path d="M988 2000 c-122 -21 -244 -114 -301 -229 -30 -62 -32 -72 -32 -176 0
-101 2 -115 30 -175 l30 -65 7 63 c4 35 16 82 28 103 18 37 19 42 5 69 -30 57
-9 127 45 155 103 53 211 -57 153 -156 -10 -16 -21 -29 -25 -29 -4 0 6 -25 23
-56 16 -31 29 -63 29 -73 1 -19 46 -55 54 -42 3 4 -3 16 -14 26 -44 40 -15
126 48 141 15 4 35 11 45 16 16 8 15 12 -9 44 -35 46 -43 117 -18 169 24 52
66 75 136 75 46 0 62 -5 88 -26 17 -15 38 -40 46 -57 21 -39 13 -109 -15 -148
l-21 -28 25 -37 c25 -37 40 -80 51 -146 4 -21 10 -38 14 -38 3 0 17 23 31 52
21 45 24 66 24 162 0 105 -2 115 -32 176 -58 118 -174 206 -302 230 -60 11
-75 11 -143 0z"/>
<path d="M1310 850 l0 -230 75 0 75 0 0 230 0 230 -75 0 -75 0 0 -230z"/>
<path d="M1490 850 l0 -230 120 0 120 0 0 70 0 70 -50 0 -50 0 0 160 0 160
-70 0 -70 0 0 -230z"/>
<path d="M1650 1066 c0 -8 27 -58 60 -111 l60 -96 0 -120 0 -119 85 0 85 0 0
126 0 126 41 71 c23 40 50 87 61 105 l20 32 -84 0 -84 0 -17 -35 c-9 -19 -20
-35 -25 -35 -4 0 -16 16 -26 35 l-19 35 -79 0 c-61 0 -78 -3 -78 -14z"/>
<path d="M140 845 l0 -225 75 0 75 0 0 80 0 80 45 0 45 0 0 70 0 70 -51 0
c-63 0 -64 23 -1 28 l42 3 0 60 0 59 -115 0 -115 0 0 -225z"/>
<path d="M432 867 c-39 -111 -72 -213 -72 -225 0 -21 4 -22 70 -22 l69 0 37
118 c44 141 44 140 61 117 17 -24 17 -45 0 -45 -15 0 -37 -55 -37 -93 0 -25 3
-27 44 -27 40 0 47 -4 66 -35 21 -34 23 -35 90 -35 l69 0 -29 83 c-29 84 -113
318 -125 350 -6 14 -20 17 -89 17 l-81 0 -73 -203z"/>
<path d="M827 1048 c-3 -13 -13 -73 -22 -134 l-16 -112 37 -91 c31 -77 40 -91
59 -91 20 0 23 6 29 68 9 94 17 132 26 132 5 0 27 -34 50 -75 23 -41 46 -75
51 -75 5 0 26 34 46 75 21 41 40 75 44 75 8 0 16 -42 25 -132 l7 -68 69 0 69
0 -7 48 c-3 26 -16 126 -28 222 l-21 175 -70 3 -70 3 -28 -56 c-15 -30 -32
-55 -39 -55 -7 0 -28 25 -46 55 l-33 55 -64 0 c-57 0 -63 -2 -68 -22z"/>
</g>
</svg>
