<svg version="1.0" xmlns="http://www.w3.org/2000/svg"
 width="693.000000px" height="390.000000px" viewBox="0 0 693.000000 390.000000"
 preserveAspectRatio="xMidYMid meet">

<g transform="translate(0.000000,390.000000) scale(0.100000,-0.100000)"
fill="#000000" stroke="none">
<path d="M0 1950 l0 -1950 3465 0 3465 0 0 1950 0 1950 -3465 0 -3465 0 0
-1950z m1474 1445 c98 -47 125 -206 58 -349 -50 -108 -115 -166 -185 -166 -45
0 -80 28 -108 88 -31 64 -33 201 -4 280 47 128 148 190 239 147z m-434 -143
c126 -94 162 -324 59 -381 -89 -49 -251 119 -252 263 -1 64 24 113 66 132 39
17 92 11 127 -14z m988 -27 c76 -32 112 -86 112 -167 -1 -73 -28 -128 -102
-202 -95 -93 -233 -156 -343 -156 -57 0 -126 37 -148 80 -48 93 40 270 187
375 111 79 213 103 294 70z m-1223 -249 c83 -49 130 -161 86 -205 -53 -53
-189 0 -237 91 -22 42 -17 76 15 109 37 36 79 38 136 5z m500 -177 c129 -24
225 -106 267 -227 32 -94 31 -268 -2 -397 -83 -328 -289 -567 -500 -583 -118
-8 -217 57 -254 166 -20 58 -20 171 -1 246 43 165 157 288 220 236 24 -20 17
-58 -25 -134 -68 -124 -86 -235 -51 -313 23 -49 51 -66 108 -65 96 1 193 94
278 267 105 214 131 445 65 575 -100 197 -390 113 -603 -175 -161 -217 -255
-502 -244 -745 9 -233 98 -396 256 -468 73 -34 206 -42 301 -18 91 22 235 97
314 162 64 53 66 56 66 100 0 121 55 376 100 464 48 95 125 150 207 150 60 0
111 -25 140 -69 18 -27 23 -48 23 -103 0 -81 -23 -153 -79 -250 -26 -45 -35
-68 -26 -68 29 0 64 -24 75 -51 10 -22 8 -49 -5 -129 -20 -122 -16 -150 23
-150 31 0 70 35 95 85 8 17 35 94 61 173 49 153 61 180 85 199 37 29 111 4
111 -37 0 -9 -12 -50 -26 -91 -62 -177 -16 -347 81 -295 48 26 65 64 65 143 0
188 114 365 249 388 79 13 169 -34 197 -102 29 -68 10 -164 -42 -219 -35 -37
-67 -43 -102 -18 -27 19 -28 48 -1 98 27 51 22 90 -12 94 -60 7 -129 -97 -137
-209 -8 -117 39 -173 145 -172 64 0 169 48 207 94 77 91 95 154 125 449 18
176 20 185 46 207 33 29 59 29 86 2 20 -20 21 -29 16 -118 -4 -53 -10 -113
-13 -134 l-7 -37 49 27 c97 55 201 28 245 -63 29 -60 23 -147 -14 -221 -30
-58 -108 -140 -161 -168 -40 -22 -43 -31 -20 -63 31 -45 101 -65 147 -41 12 6
49 40 82 75 34 35 66 64 73 64 7 0 21 -9 32 -20 15 -15 19 -27 14 -48 -19 -78
-81 -153 -154 -185 -54 -24 -139 -26 -192 -4 -42 18 -114 80 -139 120 l-17 29
-6 -34 c-23 -118 -53 -168 -101 -168 -57 0 -75 49 -55 150 4 25 7 46 7 47 -1
1 -28 -16 -60 -38 -134 -89 -285 -92 -390 -7 l-39 30 -36 -35 c-44 -42 -78
-57 -135 -57 -55 0 -100 29 -136 85 l-29 46 -20 -33 c-90 -145 -269 -174 -326
-53 -15 30 -17 58 -14 149 l3 111 -29 3 c-85 10 -146 -105 -146 -273 0 -52 -4
-69 -20 -85 -54 -54 -120 0 -120 96 0 19 -2 34 -4 34 -2 0 -28 -16 -57 -36
-274 -187 -600 -188 -801 -5 -142 130 -210 309 -210 551 0 141 18 254 60 380
143 421 439 705 758 729 11 0 47 -4 79 -10z m49 -315 c45 -44 -19 -174 -85
-174 -68 0 -63 114 7 169 32 25 57 27 78 5z m404 -69 c74 -37 145 -105 140
-133 -2 -11 -34 -28 -91 -48 -49 -18 -111 -46 -139 -63 -28 -18 -52 -30 -53
-29 -1 2 3 37 11 78 7 41 13 107 14 146 0 39 3 74 7 77 13 14 42 6 111 -28z
m4289 -326 c17 -11 41 -40 54 -65 35 -74 24 -149 -41 -281 l-53 -105 28 -57
c38 -78 112 -191 126 -191 6 0 60 23 121 51 l110 51 26 -19 c61 -45 31 -95
-91 -153 l-78 -37 32 -27 c43 -36 97 -63 144 -71 58 -10 85 -30 85 -64 0 -43
-33 -66 -94 -66 -83 1 -174 48 -270 139 l-50 46 -85 -15 c-47 -8 -149 -18
-226 -22 l-139 -6 -114 -103 c-63 -57 -135 -117 -160 -134 -70 -46 -129 -38
-147 21 -8 26 14 60 62 95 21 16 66 50 100 77 l62 50 -29 27 c-37 35 -38 62
-3 90 23 18 35 20 93 14 l66 -6 70 78 c129 144 206 245 199 263 -16 42 -44
155 -50 204 -13 106 41 212 121 237 38 12 91 3 131 -21z m-1679 -19 c50 -31
76 -97 67 -174 -14 -130 -102 -298 -225 -429 l-62 -67 43 -20 c89 -40 173 -16
234 68 20 28 49 91 70 154 41 120 75 168 121 168 37 0 64 -27 64 -64 0 -17 -9
-63 -21 -101 -42 -144 -24 -271 43 -294 32 -11 86 1 117 27 20 16 20 19 5 67
-22 69 -23 222 -1 304 67 252 261 406 380 301 59 -52 72 -148 38 -282 -36
-138 -98 -253 -193 -354 -46 -48 -47 -52 -30 -67 37 -33 90 -48 132 -37 38 10
59 30 103 100 29 45 73 49 96 9 13 -23 12 -30 -11 -80 -48 -104 -127 -158
-233 -159 -68 0 -144 30 -183 73 l-24 25 -65 -30 c-127 -57 -233 -31 -284 69
-13 26 -25 50 -26 52 -1 2 -24 -13 -50 -32 -47 -35 -101 -59 -154 -71 l-27 -6
19 -61 c57 -182 -14 -339 -152 -339 -111 0 -212 131 -240 310 -16 102 -15 100
-45 100 -15 0 -36 7 -46 17 -31 28 -22 62 26 107 42 39 44 44 51 116 28 295
139 524 290 599 54 27 130 27 173 1z m1957 -35 c31 -30 32 -66 2 -101 -17 -20
-33 -27 -57 -27 -39 0 -80 40 -80 79 0 35 42 74 80 74 19 0 40 -9 55 -25z
m-1605 -95 c30 -30 27 -83 -6 -109 -35 -28 -69 -26 -99 4 -31 30 -32 71 -3
102 27 29 80 31 108 3z m-2376 -71 c54 -43 21 -139 -48 -139 -35 1 -57 15 -74
47 -18 34 -14 52 17 84 35 34 68 37 105 8z m1448 -239 c53 -25 56 -82 5 -114
-75 -48 -227 -13 -227 52 0 66 132 102 222 62z m1800 0 c52 -24 54 -83 2 -116
-35 -23 -137 -24 -180 -1 -44 23 -56 57 -31 90 30 43 143 57 209 27z"/>
<path d="M1762 1904 c-31 -21 -57 -77 -81 -170 -21 -83 -45 -233 -39 -239 6
-6 93 105 137 175 22 36 48 95 58 131 16 63 16 68 0 93 -20 30 -43 33 -75 10z"/>
<path d="M3253 1625 c-11 -8 -30 -34 -41 -59 -22 -46 -49 -172 -40 -182 18
-17 147 85 174 137 17 34 18 91 2 107 -17 17 -69 15 -95 -3z"/>
<path d="M5934 1973 c-13 -14 -15 -29 -11 -81 6 -83 21 -99 43 -46 23 55 29
111 14 129 -16 19 -25 19 -46 -2z"/>
<path d="M5854 1438 c-33 -40 -67 -83 -77 -95 l-18 -23 63 6 c88 8 180 22 186
29 3 3 -2 13 -10 22 -9 10 -30 44 -48 76 -17 31 -33 57 -35 57 -1 0 -29 -32
-61 -72z"/>
<path d="M4238 1940 c-76 -62 -151 -224 -182 -389 l-14 -76 56 60 c117 124
205 286 206 380 1 62 -14 67 -66 25z"/>
<path d="M5076 1909 c-14 -11 -44 -58 -66 -104 -56 -115 -83 -266 -61 -345 6
-22 11 -18 57 51 87 131 149 317 130 392 -8 32 -24 34 -60 6z"/>
<path d="M4030 1265 c0 -46 28 -180 46 -225 32 -76 100 -115 124 -71 16 31 11
111 -13 186 -21 65 -26 72 -67 93 -25 13 -52 30 -61 38 -24 21 -29 17 -29 -21z"/>
<path d="M6245 2031 c-3 -5 9 -11 27 -13 30 -3 33 -6 33 -36 0 -41 -11 -50
-30 -26 -14 18 -14 18 -15 1 0 -34 -25 -11 -30 29 -5 34 -7 36 -14 16 -20 -57
64 -100 98 -50 21 30 20 44 -4 68 -21 21 -55 27 -65 11z"/>
</g>
</svg>
