<svg version="1.0" xmlns="http://www.w3.org/2000/svg"
 width="266.000000px" height="216.000000px" viewBox="0 0 266.000000 216.000000"
 preserveAspectRatio="xMidYMid meet">

<g transform="translate(0.000000,216.000000) scale(0.100000,-0.100000)"
fill="#000000" stroke="none">
<path d="M120 1575 l0 -445 1215 0 1215 0 0 205 0 205 -417 0 c-1320 1 -1206
6 -1277 -52 l-28 -24 15 -54 c8 -30 30 -101 48 -158 18 -56 30 -105 26 -108
-3 -4 -67 37 -141 91 l-135 97 -81 -59 c-123 -88 -181 -125 -187 -119 -3 2 16
68 41 146 25 78 46 149 46 158 0 11 -51 55 -129 112 -72 52 -130 98 -130 103
-1 4 75 7 168 7 l169 0 10 28 c33 88 99 302 94 306 -3 3 -122 6 -264 6 l-258
0 0 -445z"/>
<path d="M773 1980 c16 -5 34 -14 42 -20 9 -8 15 -8 20 0 7 12 -36 30 -68 29
-18 -1 -17 -2 6 -9z"/>
<path d="M2058 1983 c6 -2 18 -2 25 0 6 3 1 5 -13 5 -14 0 -19 -2 -12 -5z"/>
<path d="M918 1975 c-3 -3 18 -81 47 -173 35 -111 57 -167 66 -167 14 0 55
103 44 113 -2 3 -8 -9 -11 -26 -12 -58 -30 -45 -54 36 -43 150 -52 177 -61
200 -8 21 -20 28 -31 17z"/>
<path d="M1145 1968 c-9 -24 -65 -201 -65 -205 0 -2 4 -2 9 1 5 3 12 22 16 42
3 20 10 44 15 53 5 9 11 24 14 34 3 9 10 17 16 17 6 0 13 -8 16 -17 3 -10 14
-40 24 -68 9 -27 28 -83 40 -122 12 -40 28 -73 35 -73 7 0 35 65 65 153 58
170 68 208 52 192 -7 -6 -29 -70 -51 -143 -21 -74 -42 -136 -45 -140 -13 -12
-27 18 -70 148 -42 128 -60 159 -71 128z"/>
<path d="M1430 1970 c0 -5 25 -10 55 -10 l55 0 0 -165 c0 -140 2 -165 15 -165
13 0 15 23 15 149 0 82 3 156 6 165 4 12 20 16 55 16 27 0 49 5 49 10 0 6 -48
10 -125 10 -77 0 -125 -4 -125 -10z"/>
<path d="M1770 1808 c0 -135 -3 -179 -15 -202 -16 -31 -14 -43 5 -31 30 18 38
71 36 234 -1 122 -4 165 -13 168 -10 4 -13 -34 -13 -169z"/>
<path d="M2110 1977 c0 -9 63 -38 68 -32 3 3 1 9 -4 14 -11 11 -64 26 -64 18z"/>
<path d="M687 1952 c-23 -25 -22 -94 1 -115 10 -9 43 -27 73 -41 31 -13 59
-32 63 -41 11 -30 6 -62 -15 -89 -26 -33 -84 -36 -120 -5 -16 14 -25 17 -28 8
-7 -21 31 -39 81 -39 66 0 110 38 112 97 1 51 -17 73 -90 107 -66 31 -85 65
-60 109 17 31 7 36 -17 9z"/>
<path d="M1950 1944 c-45 -38 -60 -75 -60 -146 0 -45 6 -72 20 -96 23 -38 75
-72 110 -72 23 0 22 1 -9 18 -61 30 -76 62 -76 157 0 91 16 126 66 152 23 12
23 13 2 13 -12 0 -35 -12 -53 -26z"/>
<path d="M2145 1651 c-6 -5 -21 -11 -35 -14 l-25 -4 26 -2 c14 0 34 6 45 14
10 8 14 15 9 15 -6 0 -15 -4 -20 -9z"/>
<path d="M194 1065 c-5 -19 1 -36 20 -63 29 -43 33 -62 11 -62 -8 0 -15 7 -15
15 0 8 -4 15 -10 15 -15 0 -12 -36 4 -49 21 -17 56 3 56 32 0 12 -11 39 -25
59 -29 42 -31 58 -10 58 8 0 15 -7 15 -15 0 -8 5 -15 11 -15 6 0 9 10 7 23 -2
16 -11 23 -30 25 -22 3 -29 -2 -34 -23z"/>
<path d="M480 1005 c0 -50 4 -85 10 -85 6 0 10 26 10 57 0 66 13 64 15 -2 2
-72 15 -65 15 7 0 49 -4 67 -15 72 -8 3 -15 12 -15 21 0 8 -4 15 -10 15 -6 0
-10 -35 -10 -85z"/>
<path d="M910 1081 c0 -6 5 -13 10 -16 6 -3 10 -40 10 -81 0 -43 4 -74 10 -74
6 0 10 33 10 78 0 47 5 83 12 90 9 9 5 12 -20 12 -18 0 -32 -4 -32 -9z"/>
<path d="M1328 1084 c-5 -4 -8 -38 -8 -75 0 -37 -4 -71 -10 -74 -15 -9 -12
-25 5 -25 8 0 18 8 22 18 10 21 1 167 -9 156z"/>
<path d="M1731 1076 c-7 -9 -11 -42 -9 -88 3 -68 5 -73 27 -76 23 -4 41 11 41
36 0 6 -7 12 -15 12 -8 0 -15 -7 -15 -16 0 -8 -4 -12 -10 -9 -12 8 -13 122 -1
129 5 3 11 -3 14 -14 6 -25 27 -26 27 -2 0 36 -37 54 -59 28z"/>
<path d="M432 998 c2 -45 8 -83 13 -85 6 -2 9 27 8 74 -2 99 -1 93 -13 93 -7
0 -10 -30 -8 -82z"/>
<path d="M1520 1069 c0 -5 5 -7 10 -4 6 3 10 8 10 11 0 2 -4 4 -10 4 -5 0 -10
-5 -10 -11z"/>
<path d="M1880 995 c0 -50 4 -85 10 -85 6 0 10 35 10 85 0 50 -4 85 -10 85 -6
0 -10 -35 -10 -85z"/>
<path d="M1920 995 c0 -50 4 -85 10 -85 6 0 10 35 10 85 0 50 -4 85 -10 85 -6
0 -10 -35 -10 -85z"/>
<path d="M828 1065 c-8 -9 3 -139 13 -149 5 -6 9 24 9 72 0 74 -6 93 -22 77z"/>
<path d="M287 1053 c-4 -3 -7 -35 -7 -70 0 -64 0 -64 28 -61 25 3 27 6 30 56
3 53 -8 82 -33 82 -6 0 -15 -3 -18 -7z m25 -60 c-5 -59 -10 -63 -11 -10 -1 26
3 47 7 47 4 0 6 -17 4 -37z"/>
<path d="M690 1050 c-7 -4 -15 -30 -17 -56 -5 -55 13 -91 41 -81 17 7 23 47 6
47 -5 0 -10 -6 -10 -12 0 -9 -3 -9 -9 1 -12 18 -3 41 15 41 9 0 14 11 14 29 0
30 -18 45 -40 31z"/>
<path d="M350 985 l0 -65 30 0 30 0 0 65 c0 37 -4 65 -10 65 -5 0 -10 -25 -10
-55 0 -30 -4 -55 -10 -55 -5 0 -10 25 -10 55 0 30 -4 55 -10 55 -6 0 -10 -28
-10 -65z"/>
<path d="M555 1013 c13 -79 17 -93 25 -93 5 0 10 11 12 25 2 14 8 26 13 26 6
0 11 -12 13 -26 5 -40 18 -29 30 26 15 62 15 79 2 79 -5 0 -10 -16 -10 -36 0
-21 -4 -33 -10 -29 -5 3 -10 20 -10 36 0 42 -23 32 -30 -12 -4 -27 -7 -30 -13
-16 -4 10 -7 27 -7 38 0 10 -5 19 -10 19 -7 0 -9 -14 -5 -37z"/>
<path d="M753 1034 c-3 -8 2 -30 12 -48 10 -18 15 -39 12 -47 -4 -10 -6 -9 -6
4 -1 17 -21 25 -21 8 0 -41 32 -54 50 -21 9 17 7 28 -9 54 -12 18 -21 40 -21
47 0 11 2 11 10 -1 5 -8 12 -11 15 -8 10 10 -4 28 -21 28 -8 0 -17 -7 -21 -16z"/>
<path d="M984 1038 c-11 -17 -7 -109 5 -121 15 -15 41 0 41 25 0 17 -3 19 -12
10 -16 -16 -28 -15 -28 2 0 8 9 21 21 29 13 10 19 23 17 38 -3 26 -32 37 -44
17z m26 -18 c0 -5 -4 -10 -10 -10 -5 0 -10 5 -10 10 0 6 5 10 10 10 6 0 10 -4
10 -10z"/>
<path d="M1054 979 c0 -48 2 -65 9 -54 8 15 10 15 21 0 10 -14 12 -4 12 53 -1
49 -4 68 -12 61 -6 -5 -14 -5 -20 1 -5 5 -9 -18 -10 -61z"/>
<path d="M1127 1043 c-14 -13 -6 -24 13 -18 16 5 19 3 13 -12 -4 -10 -13 -23
-21 -28 -22 -17 -12 -69 15 -73 18 -3 22 3 26 35 3 21 4 49 2 63 -2 14 -4 28
-4 33 -1 9 -35 9 -44 0z m25 -95 c-9 -9 -12 -7 -12 12 0 19 3 21 12 12 9 -9 9
-15 0 -24z"/>
<path d="M1200 1023 c0 -15 7 -37 15 -47 8 -11 15 -27 15 -35 -1 -13 -4 -12
-16 4 -15 20 -15 19 -12 -5 2 -17 9 -25 23 -25 29 0 31 38 5 76 -24 33 -20 50
6 28 14 -12 16 -11 13 6 -3 12 -14 21 -27 23 -18 3 -22 -1 -22 -25z"/>
<path d="M1405 1038 c-2 -7 -6 -35 -8 -63 l-3 -50 -2 58 c-3 79 -22 73 -22 -8
0 -63 1 -65 25 -65 24 0 25 2 25 70 0 66 -5 86 -15 58z"/>
<path d="M1447 1044 c-11 -11 -8 -134 3 -134 6 0 10 27 10 62 0 34 3 58 8 54
4 -4 7 -31 7 -59 0 -32 5 -52 13 -55 10 -3 12 12 10 65 -3 60 -5 68 -23 71
-12 2 -24 0 -28 -4z"/>
<path d="M1520 981 c0 -39 4 -71 8 -71 12 0 13 128 2 135 -6 4 -10 -22 -10
-64z"/>
<path d="M1562 983 c3 -62 5 -68 26 -71 21 -3 22 0 22 67 0 69 -1 71 -25 71
-26 0 -26 -1 -23 -67z m33 -2 c0 -23 -4 -42 -10 -43 -10 -3 -17 57 -10 80 9
25 20 4 20 -37z"/>
<path d="M1637 1043 c-11 -10 -8 -133 3 -133 6 0 10 22 10 48 0 26 5 53 11 59
6 6 8 16 5 22 -8 12 -20 14 -29 4z"/>
<path d="M1810 1031 c-6 -12 -9 -33 -6 -48 2 -16 5 -38 5 -51 1 -18 6 -23 24
-20 20 3 22 8 22 68 0 53 -3 65 -17 68 -9 2 -22 -6 -28 -17z m30 -51 c0 -27
-4 -50 -10 -50 -5 0 -10 23 -10 50 0 28 5 50 10 50 6 0 10 -22 10 -50z"/>
<path d="M1964 1036 c-3 -7 -4 -38 -2 -67 3 -46 6 -54 24 -57 21 -3 42 24 28
37 -4 3 -9 0 -11 -6 -8 -22 -23 -14 -23 12 0 15 6 25 14 25 21 0 29 17 22 46
-7 26 -43 34 -52 10z m36 -21 c0 -8 -4 -15 -10 -15 -5 0 -10 7 -10 15 0 8 5
15 10 15 6 0 10 -7 10 -15z"/>
<path d="M2040 986 c0 -52 3 -66 15 -66 8 0 15 -4 15 -10 0 -5 -7 -7 -15 -4
-8 4 -15 1 -15 -6 0 -6 10 -10 23 -8 21 3 22 8 22 78 0 70 -1 75 -22 78 -22 3
-23 0 -23 -62z m27 -23 c-2 -16 -4 -5 -4 22 0 28 2 40 4 28 2 -13 2 -35 0 -50z"/>
<path d="M2114 1036 c-3 -7 -4 -38 -2 -67 3 -46 6 -54 24 -57 13 -2 24 4 28
14 9 23 0 30 -19 14 -13 -11 -15 -9 -15 14 0 16 6 26 14 26 21 0 29 17 22 46
-7 26 -43 34 -52 10z m36 -26 c0 -5 -4 -10 -10 -10 -5 0 -10 5 -10 10 0 6 5
10 10 10 6 0 10 -4 10 -10z"/>
<path d="M372 817 c42 -41 89 -109 140 -201 41 -75 39 -90 -14 -79 -15 3 -107
2 -203 -2 l-175 -7 0 -189 0 -189 531 0 531 0 83 60 c144 105 297 186 510 271
l120 48 -260 1 c-299 1 -308 6 -98 58 278 69 504 99 806 109 l207 6 0 33 c0
38 6 36 -135 56 -144 20 -728 17 -885 -5 -264 -38 -442 -74 -620 -127 -90 -27
-178 -50 -190 -50 -4 0 -31 28 -58 63 -27 35 -74 89 -103 120 l-53 57 -84 0
-84 0 34 -33z"/>
<path d="M2495 488 c-187 -116 -304 -206 -373 -287 l-43 -51 235 0 236 0 0
185 c0 102 -1 185 -2 184 -2 0 -25 -14 -53 -31z"/>
</g>
</svg>
