<svg xmlns="http://www.w3.org/2000/svg" viewBox="0 0 264 264" width="64" height="64">
  <circle cx="132" cy="132" r="132" fill="#B54A1E"/>
  <g transform="translate(0,204) scale(0.1,-0.1)" fill="#FDFCF9" stroke="none">
    <path d="M577 1309 c-326 -80 -521 -361 -479 -692 9 -76 19 -109 57 -185 153
-308 528 -431 841 -276 129 64 267 228 309 368 l11 38 27 -72 c91 -246 313
-400 577 -400 103 0 202 23 287 66 96 48 223 179 271 277 113 234 67 523 -111
699 -111 109 -190 152 -339 183 -90 19 -125 19 -231 -5 -214 -47 -381 -189
-454 -385 l-27 -72 -21 61 c-48 136 -175 281 -304 346 -61 31 -223 70 -285 69
-28 0 -86 -9 -129 -20z m113 -104 l0 -85 -38 0 c-24 0 -68 -15 -118 -38 -129
-63 -213 -171 -235 -301 -5 -31 -9 -57 -9 -58 0 -2 -38 -3 -85 -3 -98 0 -96
-3 -69 104 38 149 76 217 170 307 99 94 235 156 347 158 l37 1 0 -85z m1391
67 c140 -37 305 -173 367 -304 34 -72 47 -118 57 -195 l7 -53 -86 0 -86 0 0
29 c0 58 -57 182 -107 234 -78 79 -187 137 -260 137 l-33 0 0 85 0 85 38 -1
c20 0 67 -8 103 -17z m-1389 -265 l-3 -83 -47 -13 c-58 -15 -115 -73 -139
-141 l-18 -51 -80 3 -80 3 3 35 c8 87 60 182 136 244 48 39 159 85 206 86 25
0 25 0 22 -83z m1208 -52 l0 -135 -175 0 c-96 0 -175 2 -175 5 0 26 61 113
114 163 52 48 79 66 128 81 114 36 108 42 108 -114z m174 104 c79 -29 148 -96
191 -182 19 -40 38 -91 41 -114 l7 -43 -86 0 -85 0 -11 47 c-16 63 -80 128
-144 145 l-47 12 0 84 0 85 40 -7 c22 -3 64 -15 94 -27z m-1057 -117 c46 -56
71 -124 80 -214 11 -111 -52 -258 -137 -318 l-30 -21 0 317 0 316 23 -14 c12
-8 41 -38 64 -66z m-327 -137 l0 -85 -80 0 c-75 0 -80 1 -80 21 0 54 90 149
142 149 16 0 18 -10 18 -85z m1320 65 c42 -21 84 -76 95 -122 l7 -28 -86 0
-86 0 0 85 c0 96 3 99 70 65z m-1720 -183 c0 -2 5 -30 11 -62 30 -162 160
-292 327 -326 l62 -13 0 -84 0 -85 -60 7 c-161 18 -324 121 -415 263 -35 54
-78 176 -90 256 l-7 47 86 0 c47 0 86 -1 86 -3z m213 -47 c23 -64 73 -114 137
-137 l50 -18 0 -82 0 -83 -42 6 c-163 24 -294 157 -323 327 l-6 37 83 0 83 0
18 -50z m187 -35 c0 -47 -2 -85 -5 -85 -17 0 -83 34 -103 53 -29 27 -52 69
-52 97 0 18 6 20 80 20 l80 0 0 -85z m1420 76 c0 -23 -23 -68 -48 -94 -27 -28
-91 -67 -112 -67 -6 0 -10 33 -10 85 l0 85 85 0 c47 0 85 -4 85 -9z m200 -8
c0 -57 -46 -158 -101 -224 -43 -52 -156 -114 -226 -124 l-43 -7 0 86 c0 75 2
86 18 86 9 0 41 14 69 30 56 32 97 84 108 138 l7 32 84 0 c73 0 84 -2 84 -17z
m200 -5 c0 -13 -7 -53 -14 -89 -31 -146 -127 -281 -264 -370 -77 -51 -142 -74
-235 -85 l-57 -7 0 85 0 84 62 13 c90 18 158 55 221 120 59 59 102 147 114
229 l6 42 83 0 c80 0 84 -1 84 -22z m-610 -213 l0 -136 -37 7 c-136 24 -258
120 -303 239 l-10 25 175 0 175 0 0 -135z"/>
  </g>
</svg>
